<?xml version="1.0" encoding="UTF-8" standalone="no"?>
<!-- Created with Inkscape (http://www.inkscape.org/) -->

<svg
   width="1707.6323"
   height="484.40137"
   viewBox="0 0 451.811 128.16451"
   version="1.1"
   id="svg1"
   xml:space="preserve"
   inkscape:version="1.4 (86a8ad7, 2024-10-11)"
   sodipodi:docname="aksl1_horizontal.svg"
   inkscape:export-filename="aksl1_no_underline.svg"
   inkscape:export-xdpi="96"
   inkscape:export-ydpi="96"
   xmlns:inkscape="http://www.inkscape.org/namespaces/inkscape"
   xmlns:sodipodi="http://sodipodi.sourceforge.net/DTD/sodipodi-0.dtd"
   xmlns="http://www.w3.org/2000/svg"
   xmlns:svg="http://www.w3.org/2000/svg"><sodipodi:namedview
     id="namedview1"
     pagecolor="#ffffff"
     bordercolor="#999999"
     borderopacity="0"
     inkscape:showpageshadow="2"
     inkscape:pageopacity="0"
     inkscape:pagecheckerboard="false"
     inkscape:deskcolor="#d1d1d1"
     inkscape:document-units="mm"
     showborder="true"
     showgrid="false"
     inkscape:zoom="2"
     inkscape:cx="362"
     inkscape:cy="867.25"
     inkscape:window-width="1920"
     inkscape:window-height="1111"
     inkscape:window-x="-9"
     inkscape:window-y="-9"
     inkscape:window-maximized="1"
     inkscape:current-layer="layer2"
     inkscape:export-bgcolor="#ffffff00"><inkscape:grid
       id="grid4"
       units="mm"
       originx="-7.2775873"
       originy="-147.65949"
       spacingx="0.99999987"
       spacingy="0.99999987"
       empcolor="#0099e5"
       empopacity="0.30196078"
       color="#0099e5"
       opacity="0.14901961"
       empspacing="5"
       enabled="true"
       visible="false" /><inkscape:page
       x="0"
       y="-7.2362716e-14"
       width="451.811"
       height="128.16451"
       id="page2"
       margin="0"
       bleed="0" /></sodipodi:namedview><defs
     id="defs1"><linearGradient
       id="swatch7"
       inkscape:swatch="solid"><stop
         style="stop-color:#000000;stop-opacity:1;"
         offset="0"
         id="stop7" /></linearGradient><linearGradient
       id="swatch5"
       inkscape:swatch="solid"><stop
         style="stop-color:#000000;stop-opacity:1;"
         offset="0"
         id="stop5" /></linearGradient><linearGradient
       id="swatch3"
       inkscape:swatch="solid"><stop
         style="stop-color:#000000;stop-opacity:1;"
         offset="0"
         id="stop3" /></linearGradient><linearGradient
       id="swatch70"
       inkscape:swatch="solid"
       inkscape:pinned="true"
       gradientTransform="matrix(0,0,0,0,-2.5468544,0.84364244)"><stop
         style="stop-color:#2698c6;stop-opacity:1;"
         offset="0"
         id="stop70" /></linearGradient><linearGradient
       id="swatch20"
       inkscape:swatch="solid"><stop
         style="stop-color:#00b9b9;stop-opacity:1;"
         offset="0"
         id="stop20" /></linearGradient><linearGradient
       id="swatch19"
       inkscape:swatch="solid"><stop
         style="stop-color:#000000;stop-opacity:1;"
         offset="0"
         id="stop19" /></linearGradient><linearGradient
       id="swatch18"
       inkscape:swatch="solid"><stop
         style="stop-color:#3590a8;stop-opacity:1;"
         offset="0"
         id="stop18" /></linearGradient><linearGradient
       id="swatch12"
       inkscape:swatch="solid"><stop
         style="stop-color:#ffffff;stop-opacity:1;"
         offset="0"
         id="stop12" /></linearGradient><linearGradient
       id="swatch4"
       inkscape:swatch="solid"
       inkscape:pinned="true"
       gradientTransform="matrix(0,0,0,0,-406.25874,104.01403)"><stop
         style="stop-color:#3590a8;stop-opacity:1;"
         offset="0"
         id="stop4" /></linearGradient><linearGradient
       id="swatch2"
       inkscape:swatch="solid"
       inkscape:pinned="true"
       gradientTransform="matrix(13.812572,0,0,13.812572,3717.1319,4952.2292)"><stop
         style="stop-color:#0b283b;stop-opacity:1;"
         offset="0"
         id="stop2" /></linearGradient><linearGradient
       id="swatch1"
       inkscape:swatch="solid"
       inkscape:pinned="true"
       gradientTransform="matrix(6.1832252e-4,0,0,6.1832252e-4,-281.24748,94.840315)"><stop
         style="stop-color:#87ceeb;stop-opacity:1;"
         offset="0"
         id="stop1" /></linearGradient></defs><g
     inkscape:groupmode="layer"
     id="layer2"
     inkscape:label="Alaska Outline"
     style="display:inline"
     transform="translate(-97.828504,-113.98354)"><path
       id="path3"
       style="display:inline;fill:none;fill-opacity:1;fill-rule:nonzero;stroke:#000000;stroke-width:1.87159;stroke-linejoin:round;stroke-dasharray:none;stroke-opacity:1;paint-order:normal"
       d="m 167.39078,222.85676 v -2.50048 l 2.70885,-1.87536 1.25023,-2.08373 1.04187,-0.20838 0.20839,-2.08373 1.25024,-3.95909 -2.70886,1.25023 -1.25026,0.41676 -1.87533,-1.45861 -1.45863,0.20836 0.62512,2.29211 -1.04186,0.62512 -1.25025,-2.08374 h -1.87536 l -1.45861,-2.08373 -1.04187,1.66699 -2.29211,1.25024 -2.08373,0.8335 -0.20838,-2.08374 1.04188,-1.04187 -1.04188,-1.87535 1.87537,-1.45861 -1.66699,-1.87537 -0.20838,-2.70886 1.66699,-2.50049 -2.70887,1.04188 -0.20837,4.58422 -1.4586,0.62511 -2.91723,0.20838 v -1.87537 l -2.70887,-1.04186 0.8335,-2.50048 -1.04186,-0.8335 0.83349,-1.66698 -2.08374,-1.45862 -1.66698,1.25025 0.20838,-3.12561 -1.25025,-0.41675 0.62512,-1.25025 0.41675,-4.16745 0.8335,-0.41676 0.83348,-2.70885 3.12561,0.41675 1.04187,-3.54236 2.91723,1.04188 2.50047,-3.12561 1.66699,0.62512 0.41676,1.45861 3.1256,-4.16746 -0.20837,-2.91724 -1.45862,-1.04186 0.41674,-1.04187 1.45861,-0.41674 0.20838,-2.91724 -1.25025,-0.62512 -2.70885,1.667 -1.45861,1.04188 0.20838,1.4586 -1.45863,0.41674 -2.08373,-1.87534 -2.91722,0.20836 -2.91723,1.04186 -4.37586,-1.04186 -0.41674,-1.87538 -1.45861,-1.25023 0.62512,-1.25023 2.29211,0.20838 0.62512,-1.04188 -4.37584,-0.62512 -2.70886,-0.83349 -1.25024,-1.04187 1.45861,-0.62511 2.50049,-1.45862 2.08374,-2.08373 2.08372,0.41674 -0.41674,-1.25025 2.29211,-2.08372 1.66699,-1.25025 h 3.75072 l 1.25024,0.20839 -0.83349,2.08372 0.83349,1.66699 4.37586,0.62512 2.70884,-1.04187 -0.62512,-1.04186 -1.66698,0.20837 -0.41674,-1.45861 -1.25025,-1.45862 -0.41675,-0.62512 h 1.667 l 1.4586,1.66698 2.70886,0.62513 h 3.33396 l 0.83351,-1.66699 -5.41772,0.20837 -2.08373,-1.45861 1.04186,-0.83349 -1.87534,-0.62512 -1.667,-1.04187 -1.66698,0.41675 -2.08376,0.62512 -1.04185,-0.62512 -1.04187,-5.83446 -2.29211,-1.45861 -6.45958,-2.08374 0.62512,-1.66699 1.25023,-0.62512 -1.4586,-3.33397 4.37585,-0.83349 6.04281,-2.50049 1.45862,-1.45861 1.66699,-5.41771 2.29213,-2.50048 3.12558,-1.45861 1.87538,-0.41677 0.62511,1.25024 1.87535,-4.16746 1.87538,0.41675 1.87537,-2.08373 4.79257,-1.66699 v -2.08374 l 3.54236,0.8335 1.25023,1.04187 -2.29211,2.50047 1.87537,1.04187 1.45861,-1.66698 1.04187,-1.45862 0.8335,2.2921 3.33396,0.62512 1.25026,-1.4586 2.50047,0.41674 1.45861,1.45861 2.08374,2.29212 3.33397,1.45861 2.29211,-0.8335 h 3.54235 l 3.1256,1.45862 1.45861,1.04186 h 3.95911 l 3.54234,1.45864 3.75073,-0.41676 3.95909,0.62512 5.00096,1.45861 v 72.3056 l 2.08374,0.83348 1.66698,-0.83348 h 2.29211 v 2.70884 l 4.58423,3.12561 0.20836,2.70885 1.87536,0.62512 1.87537,-2.08373 1.25023,-1.87535 1.87537,-1.04189 1.66699,0.41676 0.20838,2.29211 3.33397,2.91722 1.66698,3.33398 3.33397,5.62608 0.8335,3.1256 2.50047,2.08374 3.33399,1.25024 2.08373,1.45861 -1.04187,5.20933 -2.29211,1.667 -1.04187,-1.87536 0.20837,-1.45861 -0.62512,-3.12561 -2.50047,-1.25025 -4.37583,-5.00096 -1.45863,-4.16746 -0.62511,-1.87537 -3.54235,-2.70885 -0.41676,2.29211 -2.91722,-2.08373 -0.20838,-2.29212 -2.91722,0.62513 1.66699,0.62512 -0.41674,1.45861 -6.04285,-2.91723 0.41677,-2.91722 -5.20934,-0.83349 1.25022,-2.91723 -2.29208,1.25023 -4.37586,-0.62511 -0.83349,-2.08374 -4.58422,0.62511 -2.50048,0.20838 -1.25024,-1.45861 v -1.66699 l -2.91722,1.66699 -1.25026,-1.66699 -1.04187,-1.04187 -1.45861,-1.04186 -2.50047,-2.29211 -2.50049,0.20837 -1.66699,0.8335 1.25025,3.1256 -1.25025,2.70886 -3.1256,0.41673 0.41675,2.29212 -3.9591,0.62513 -2.91724,2.70884 -1.04185,-1.45861 2.50048,-2.29212 -3.33398,-0.83348 1.45862,-1.66699 0.83349,-2.50048 -0.41676,-2.08374 2.91724,-0.62511 3.9591,0.41674 -1.25024,-1.45862 -3.33398,-2.08373 -3.95909,2.91724 -0.83351,3.12559 -2.70883,0.62513 1.25023,2.29209 -2.2921,0.62513 -2.08373,2.08374 -0.62513,1.87536 0.41674,0.8335 3.33399,1.66698 -1.667,1.45861 -2.50047,2.50048 -2.50048,2.70885 -3.1256,1.25025 -1.45864,0.83349 -1.87534,3.75072 -2.08374,0.83349 z m -2.50049,1.04187 -2.08373,0.83349 -1.87536,1.667 -0.41675,1.04185 -1.04187,-0.83348 -1.25024,2.91723 0.83349,1.45862 2.70887,0.20836 1.45859,-2.08374 0.41676,1.04187 1.25024,-0.62511 3.12562,-3.33399 1.25023,-2.08373 z m -15.83638,10.41867 2.50048,-1.87536 0.20837,-1.04187 2.29211,-0.62511 0.83348,-1.45862 0.8335,0.83349 0.20838,2.08373 0.20838,1.667 -1.25026,0.41674 -1.66697,-0.41674 -0.41676,1.25023 -1.25023,1.25025 -1.04185,0.20838 z" /><path
       style="display:inline;fill:url(#swatch1);fill-opacity:1;stroke:url(#swatch1);stroke-width:2.01854;stroke-linejoin:round;stroke-dasharray:none;stroke-opacity:1;paint-order:stroke fill markers"
       d="m 145.65723,194.79438 c 0,-0.42004 -0.12743,-0.84248 -0.28319,-0.93874 -0.42412,-0.26213 8.9e-4,-4.03511 0.49554,-4.39893 0.23422,-0.17227 0.53802,-0.73544 0.6751,-1.25148 0.2299,-0.86548 0.37912,-0.95039 1.92399,-1.09469 l 1.67478,-0.15644 0.49452,-1.47582 c 0.39632,-1.1827 0.58775,-1.41668 0.96384,-1.17806 0.25812,0.16377 0.90072,0.29991 1.428,0.30255 0.77361,0.004 1.16185,-0.26635 2.01103,-1.39971 1.1157,-1.48904 1.15349,-1.49827 1.69426,-0.41358 0.19084,0.3828 0.6512,0.77247 1.02301,0.86594 0.56986,0.14326 -0.0827,0.80818 -4.1555,4.2343 -3.06434,2.57777 -5.29385,4.72345 -6.09555,5.86637 -1.37237,1.95644 -1.84983,2.22443 -1.84983,1.03829 z"
       id="path19" /><path
       id="path38"
       style="display:none;fill:#2698c6;fill-opacity:1;stroke:#2698c6;stroke-width:3.22583;stroke-linejoin:round;stroke-dasharray:none;stroke-opacity:1;paint-order:stroke fill markers"
       transform="matrix(0.26458333,0,0,0.26458333,90.550916,-33.67596)"
       d="m 1365.625,1201.6094 c -2.7269,-1.3761 -4.125,-2.369 -4.125,-2.9296 0,-1.5629 0.5984,-2.4298 1.6773,-2.4298 1.7134,0 10.3227,3.0281 10.3227,3.6307 0,0.3016 -0.2702,1.2955 -0.6004,2.2088 -0.8071,2.2318 -2.0651,2.1488 -7.2746,-0.4801 z m -13.4979,-6.5013 c -3.678,-1.8549 -5.0613,-2.7986 -4.9046,-3.3458 0.1201,-0.4193 0.4888,-2.9048 0.8195,-5.5234 l 0.6011,-4.7611 2.1387,0.011 2.1387,0.011 0.3514,3.5 c 0.1933,1.925 0.5631,4.0625 0.8216,4.75 0.6375,1.695 2.7139,3.7989 4.4652,4.5243 1.1164,0.4624 1.4413,0.9215 1.4413,2.0364 0,1.2439 -0.1867,1.4353 -1.375,1.4101 -0.7562,-0.016 -3.6803,-1.1917 -6.4979,-2.6127 z m -29.4904,-32.6843 c -15.2635,-2.7897 -15.9034,-3.1003 -15.9034,-7.7217 0,-6.198 2.4028,-11.1772 6.2369,-12.9241 2.9731,-1.3546 4.5336,-0.9286 10.9886,3.0001 4.1378,2.5184 8.9552,5.8932 10.7052,7.4996 3.7025,3.3984 4.2626,10.1957 0.945,11.4688 -1.2303,0.4721 -2.344,0.7895 -2.4748,0.7054 -0.1309,-0.084 -4.8547,-0.9968 -10.4975,-2.0281 z m -727.78824,244.6883 c -3.5344,-3.5344 -2.75873,-4.9194 2.75513,-4.9194 4.41995,0 4.99187,0.3942 4.59619,3.1676 -0.55942,3.9211 -4.29248,4.8107 -7.35132,1.7518 z m 1.97986,-3.0577 c 0.0166,-0.635 2.54303,-2.9321 5.61428,-5.1047 l 5.58409,-3.9503 -1.94771,4.6574 c -1.38227,3.3052 -3.01217,4.7872 -5.61429,5.1048 -2.01661,0.2461 -3.65298,-0.072 -3.63637,-0.7072 z m 21.53656,-9.3035 c -4.9202,-1.1831 -6.01041,-2.0381 -6.01041,-4.7134 0,-2.5719 1.12986,-3.5819 5.3033,-4.741 8.61975,-2.3938 11.66445,-1.9526 11.68658,1.6935 0.0106,1.75 0.40304,4.6138 0.87204,6.3639 0.97697,3.6455 -1.35689,3.9206 -11.85151,1.397 z M 905.73542,997.00999 c -7.62103,-4.64655 -14.25667,-5.64628 -37.47666,-5.64628 -16.92498,0 -28.2159,-1.13183 -28.2159,-2.82843 0,-1.71894 12.55153,-2.82843 31.99773,-2.82843 31.86089,0 32.03251,0.0363 40.12716,8.48528 9.39035,9.80137 6.84827,10.91507 -6.43233,2.81786 z M 580.29897,1033.904 c 1.10083,-3.1695 180.62617,-155.71648 183.11437,-155.59667 1.86011,0.0896 68.95539,95.23978 70.58403,100.09774 0.56407,1.68253 -14.72781,-12.53256 -33.98197,-31.58909 -40.89957,-40.47978 -46.74098,-43.34659 -38.18535,-18.74039 9.80498,28.19935 10.42357,27.76052 -17.242,12.23147 -23.73325,-13.32179 -34.65284,-16.92661 -34.65284,-11.43974 0,1.4066 8.84245,17.59572 19.6499,35.97584 10.80745,18.38011 19.22744,33.84085 18.71109,34.35719 -0.51634,0.51635 -15.42468,-4.98198 -33.12963,-12.2185 l -32.19083,-13.15732 -50.11526,31.39697 c -27.56339,17.2684 -50.8778,31.397 -51.80979,31.397 -0.93199,0 -1.27027,-1.2215 -0.75172,-2.7145 z M 1130.863,872.95902 c -24.3916,-21.21516 -44.4381,-39.62429 -44.5477,-40.90917 -0.1096,-1.28489 5.5879,-9.85699 12.661,-19.04912 l 12.8604,-16.71295 30.9331,15.51358 c 17.0133,8.53246 34.4546,15.54244 38.7585,15.57772 6.8843,0.0564 10.7879,4.5486 32.4606,37.35439 13.5494,20.50964 24.0724,37.8532 23.3843,38.54125 -0.688,0.68805 -15.9522,-4.83674 -33.9203,-12.27732 -17.9681,-7.44058 -33.5401,-12.65756 -34.6044,-11.5933 -1.0642,1.06426 0.3445,8.35298 3.1305,16.19715 2.786,7.84417 4.653,14.63757 4.149,15.09645 -0.5041,0.45888 -20.8733,-16.52353 -45.265,-37.73868 z M 983.38983,980.75711 c -4.33404,-4.33961 -13.01334,-5.12408 -70.40981,-6.36397 l -65.46641,-1.41421 -39.12673,-53.56267 c -21.51971,-29.45947 -38.15594,-54.50721 -36.9694,-55.66162 1.18654,-1.15442 38.43192,-31.42109 82.76751,-67.25926 l 80.61017,-65.16031 55.4945,55.37499 55.49454,55.37499 13.0948,-1.04148 c 9.1826,-0.73032 13.0949,0.0209 13.0949,2.51444 0,2.52267 -5.852,3.55591 -20.1397,3.55591 h -20.1396 l -39.29318,-31.11269 c -35.56338,-28.15943 -47.70676,-35.48812 -47.70676,-28.79163 0,1.27659 5.09117,14.23282 11.31371,28.79163 6.22254,14.5588 11.31371,27.01085 11.31371,27.67124 0,0.66038 -10.42402,-8.60548 -23.16448,-20.59079 -20.07155,-18.88188 -23.60564,-21.18816 -26.46855,-17.27289 -1.81724,2.48522 -7.42574,18.95988 -12.46332,36.61035 l -9.15925,32.09176 7.18782,13.87868 c 16.23395,31.34548 28.88019,46.41996 53.09186,63.28616 13.03711,9.08184 26.60573,20.45414 30.15247,25.27178 6.95332,9.44485 4.95946,11.88818 -3.1088,3.80959 z" /><path
       style="display:inline;fill:#2698c6;fill-opacity:1;stroke:#2698c6;stroke-width:0.356832;stroke-linejoin:round;stroke-dasharray:none;stroke-opacity:1;paint-order:stroke fill markers"
       d="m 234.60602,208.15445 c 0,-0.0584 -0.0151,-0.14546 -0.0336,-0.19357 -0.0253,-0.066 0.002,-0.0874 0.11062,-0.0874 0.12792,0 0.14419,0.0218 0.14419,0.19358 0,0.15671 -0.0211,0.19358 -0.11062,0.19358 -0.0722,0 -0.11062,-0.0369 -0.11062,-0.10609 z"
       id="path39" /><path
       style="display:inline;fill:#2698c6;fill-opacity:1;stroke:#2698c6;stroke-width:0.356832;stroke-linejoin:round;stroke-dasharray:none;stroke-opacity:1;paint-order:stroke fill markers"
       d="m 234.7516,208.63657 c -0.0846,-0.0921 -0.0896,-0.12125 -0.0276,-0.16047 0.12667,-0.0803 0.15862,-0.0568 0.15862,0.1163 0,0.1922 0.004,0.19092 -0.13097,0.0442 z"
       id="path40" /><path
       style="display:inline;fill:#2698c6;fill-opacity:1;stroke:#2698c6;stroke-width:0.713664;stroke-linejoin:round;stroke-dasharray:none;stroke-opacity:1;paint-order:stroke fill markers"
       d="m 234.01145,207.38969 c -0.15391,-0.0766 -0.25157,-0.23532 -0.14479,-0.23532 0.0711,0 0.40752,0.23201 0.40752,0.28106 0,0.0686 -0.0507,0.0598 -0.26273,-0.0458 z"
       id="path42" /><path
       style="display:inline;fill:#2698c6;fill-opacity:1;stroke:#2698c6;stroke-width:0.356832;stroke-linejoin:round;stroke-dasharray:none;stroke-opacity:1;paint-order:stroke fill markers"
       d="m 234.05184,207.67688 c -0.0772,-0.20303 0.10983,-0.4672 0.33081,-0.4672 0.22036,0 0.31525,0.29737 0.14102,0.44197 -0.0453,0.0376 -0.0718,0.0855 -0.0589,0.10631 0.0129,0.0209 -0.0623,0.0438 -0.16723,0.0508 -0.16047,0.0109 -0.19942,-0.0101 -0.24572,-0.13191 z"
       id="path52" /><path
       style="display:inline;fill:#2698c6;fill-opacity:1;stroke:#2698c6;stroke-width:0.356832;stroke-linejoin:round;stroke-dasharray:none;stroke-opacity:1;paint-order:stroke fill markers"
       d="m 234.55072,208.46019 c 0,-0.0673 -0.0234,-0.14585 -0.0519,-0.17476 -0.0285,-0.0289 -0.069,-0.1832 -0.0901,-0.3429 l -0.0382,-0.29038 h 0.17556 c 0.2556,0 0.45216,0.21469 0.44208,0.48285 -0.004,0.11468 0.009,0.26055 0.0303,0.32413 0.0349,0.10569 0.0165,0.11596 -0.21482,0.11945 -0.22531,0.004 -0.25303,-0.01 -0.25303,-0.11839 z"
       id="path53" /><path
       style="display:inline;fill:#2698c6;fill-opacity:1;stroke:#2698c6;stroke-width:0.356832;stroke-linejoin:round;stroke-dasharray:none;stroke-opacity:1;paint-order:stroke fill markers"
       d="m 234.54022,210.27931 c 0.0188,-0.16095 0.0449,-0.19358 0.15482,-0.19358 0.0727,0 0.13256,0.0311 0.13297,0.0691 0,0.0381 0.0158,0.12514 0.0341,0.19358 0.0298,0.11126 0.0134,0.12444 -0.15558,0.12444 -0.18335,0 -0.18826,-0.005 -0.16632,-0.19358 z"
       id="path55" /><path
       style="display:inline;fill:#2698c6;fill-opacity:1;stroke:#2698c6;stroke-width:0.356832;stroke-linejoin:round;stroke-dasharray:none;stroke-opacity:1;paint-order:stroke fill markers"
       d="m 235.21867,210.77217 c -0.22507,-0.18937 -0.2147,-0.25433 0.0373,-0.23349 0.18936,0.0157 0.20891,0.0329 0.22474,0.19693 0.0209,0.21717 -0.0376,0.22534 -0.26197,0.0365 z"
       id="path56" /><path
       style="display:inline;fill:#2698c6;fill-opacity:1;stroke:#2698c6;stroke-width:0.356832;stroke-linejoin:round;stroke-dasharray:none;stroke-opacity:1;paint-order:stroke fill markers"
       d="m 247.97499,215.86698 c -0.29217,-0.11165 -0.81481,-0.47143 -1.78181,-1.22657 -0.9098,-0.71049 -1.41563,-1.05557 -1.62387,-1.10783 -0.10717,-0.0269 -0.1596,0 -0.25083,0.12623 -0.45048,0.62588 -0.82925,0.87426 -1.3332,0.87426 -0.4187,0 -0.67474,-0.12867 -1.09777,-0.55169 -0.49587,-0.49588 -0.86174,-1.38791 -0.86473,-2.10834 -8.9e-4,-0.2795 -0.0741,-0.48899 -0.18502,-0.53156 -0.0451,-0.0173 -0.22741,0.004 -0.40522,0.0458 -0.84948,0.20293 -1.45233,-0.0592 -1.62684,-0.70717 -0.12401,-0.46054 0.0111,-0.807 0.69564,-1.7833 1.26513,-1.80449 2.14233,-2.66482 3.0199,-2.96184 0.43506,-0.14723 0.79916,-0.12297 1.19968,0.08 0.51197,0.25944 0.77081,0.74774 0.84421,1.59261 0.0587,0.67659 0.10084,0.75077 0.81291,1.43336 1.52303,1.45995 2.21087,2.24952 3.0562,3.50818 1.17649,1.75177 1.33275,2.63985 0.55755,3.16885 -0.31235,0.21316 -0.70021,0.26999 -1.0168,0.14902 z"
       id="path57" /><path
       style="display:inline;fill:#2698c6;fill-opacity:1;stroke:#2698c6;stroke-width:0.356832;stroke-linejoin:round;stroke-dasharray:none;stroke-opacity:1;paint-order:stroke fill markers"
       d="m 251.83465,223.09105 c -0.22587,-0.13939 -0.68469,-0.63517 -0.93067,-1.00566 -0.1114,-0.16778 -0.30422,-0.55324 -0.42848,-0.85656 -0.35893,-0.87617 -1.10805,-3.15906 -1.14081,-3.47658 -0.0283,-0.27366 -0.0202,-0.29756 0.14694,-0.43823 0.14006,-0.11786 0.234,-0.14879 0.45187,-0.14879 0.51386,0 0.66727,0.16108 1.5333,1.61002 0.70442,1.17858 1.01642,1.88084 1.33271,2.99976 0.29182,1.03233 0.30312,1.19143 0.095,1.33719 -0.17553,0.12294 -0.84815,0.10952 -1.05989,-0.0212 z"
       id="path58" /><path
       style="display:inline;fill:#2698c6;fill-opacity:1;stroke:#2698c6;stroke-width:0.356832;stroke-linejoin:round;stroke-dasharray:none;stroke-opacity:1;paint-order:stroke fill markers"
       d="m 249.14918,216.52015 c -0.17045,-0.51164 -0.17374,-0.53763 -0.0769,-0.6084 0.20257,-0.14811 0.28319,-0.0868 0.6024,0.45847 0.17143,0.29282 0.30446,0.53804 0.29563,0.54492 -0.0259,0.0201 -0.52993,0.13948 -0.5891,0.13948 -0.0296,0 -0.13405,-0.24051 -0.23197,-0.53447 z"
       id="path59" /><path
       style="display:inline;fill:#2698c6;fill-opacity:1;stroke:#2698c6;stroke-width:0.356832;stroke-linejoin:round;stroke-dasharray:none;stroke-opacity:1;paint-order:stroke fill markers"
       d="m 258.53802,233.10794 c -0.12365,-0.25164 -0.1262,-0.28138 -0.0604,-0.70519 0.0378,-0.24335 0.0706,-0.56809 0.0729,-0.72162 0.004,-0.28836 -0.61379,-3.48714 -0.70734,-3.66068 -0.11176,-0.20733 -0.35149,-0.35516 -1.52908,-0.94296 l -1.21737,-0.60764 -0.51102,-0.59013 c -0.39528,-0.45647 -0.51103,-0.62704 -0.51103,-0.75306 0,-0.14097 0.0206,-0.16291 0.15254,-0.16291 0.11276,0 0.34921,0.16221 0.90689,0.62222 l 0.75437,0.62222 1.67417,0.62517 1.67418,0.62519 0.72361,0.50436 c 0.398,0.27739 0.73167,0.51017 0.74149,0.51729 0.0149,0.0107 -0.70739,3.70294 -0.80322,4.10596 -0.0423,0.17778 -0.87607,0.78449 -1.07814,0.78449 -0.12803,0 -0.17477,-0.0435 -0.28252,-0.26271 z"
       id="path60" /><path
       style="display:inline;fill:#2698c6;fill-opacity:1;stroke:#2698c6;stroke-width:0.356832;stroke-linejoin:round;stroke-dasharray:none;stroke-opacity:1;paint-order:stroke fill markers"
       d="m 253.44717,224.58605 c -0.13494,-0.14911 -0.11667,-0.28601 0.0382,-0.28601 0.1469,0 0.31277,0.15631 0.31277,0.29473 0,0.12661 -0.23371,0.12082 -0.35093,-0.009 z"
       id="path61" /><path
       style="display:inline;fill:#2698c6;fill-opacity:1;stroke:#2698c6;stroke-width:0.356832;stroke-linejoin:round;stroke-dasharray:none;stroke-opacity:1;paint-order:stroke fill markers"
       d="m 252.78411,223.8207 c -0.0203,-0.0203 -0.0369,-0.10922 -0.0369,-0.19764 0,-0.21771 0.15066,-0.18486 0.25115,0.0548 0.0723,0.17234 0.0701,0.17975 -0.051,0.17975 -0.0695,0 -0.14297,-0.0166 -0.16326,-0.0369 z"
       id="path62" /><path
       style="display:inline;fill:#2698c6;fill-opacity:1;stroke:#2698c6;stroke-width:0.356832;stroke-linejoin:round;stroke-dasharray:none;stroke-opacity:1;paint-order:stroke fill markers"
       d="m 252.68646,223.90741 c -0.0889,-0.0889 -0.1081,-0.15695 -0.0821,-0.29037 0.0188,-0.0959 0.0378,-0.20539 0.0424,-0.24342 0.0254,-0.21158 0.45808,0.0576 0.51593,0.32097 0.0685,0.31166 -0.23969,0.44937 -0.47625,0.21282 z"
       id="path63" /><path
       style="display:inline;fill:#2698c6;fill-opacity:1;stroke:#2698c6;stroke-width:0.356832;stroke-linejoin:round;stroke-dasharray:none;stroke-opacity:1;paint-order:stroke fill markers"
       d="m 253.486,224.79828 c -0.13926,-0.0562 -0.29629,-0.26361 -0.29629,-0.39136 0,-0.0494 0.0481,-0.13328 0.1069,-0.18648 0.14127,-0.12785 0.40664,-0.0711 0.55614,0.11896 0.14462,0.18388 0.14091,0.32077 -0.0117,0.42762 -0.1373,0.0962 -0.18404,0.10029 -0.3551,0.0312 z"
       id="path64" /><path
       style="display:inline;fill:#2698c6;fill-opacity:1;stroke:#2698c6;stroke-width:0.713664;stroke-linejoin:round;stroke-dasharray:none;stroke-opacity:1;paint-order:stroke fill markers"
       id="path66"
       d="m 153.95352,232.64744 c 0.17333,-0.0137 0.34496,-0.0411 0.51714,-0.0645 0,0 -0.40531,-0.0585 -0.40531,-0.0585 v 0 c -0.1732,0.0241 -0.34629,0.0489 -0.5207,0.0629 z" /><path
       style="display:inline;fill:#2698c6;fill-opacity:1;stroke:#2698c6;stroke-width:0.713664;stroke-linejoin:round;stroke-dasharray:none;stroke-opacity:1;paint-order:stroke fill markers"
       id="path67"
       d="m 150.54469,234.3889 c -0.0201,0.1658 -0.0435,0.32776 0.005,0.48977 0.0341,0.0795 0.0983,0.11143 0.17136,0.14783 0,0 0.40903,-0.0473 0.40903,-0.0473 v 0 c -0.0675,-0.0265 -0.13105,-0.0456 -0.16811,-0.1133 -0.0524,-0.15504 -0.0271,-0.31258 -0.004,-0.47184 z" /><path
       style="display:inline;fill:#2698c6;fill-opacity:1;stroke:#2698c6;stroke-width:0.713664;stroke-linejoin:round;stroke-dasharray:none;stroke-opacity:1;paint-order:stroke fill markers"
       id="path68"
       d="m 151.77822,234.89638 c -0.12246,0.058 -0.24098,0.12402 -0.3654,0.1778 0,0 0.40942,0.0473 0.40942,0.0473 v 0 c 0.12395,-0.0575 0.24485,-0.12151 0.36749,-0.18165 z" /><path
       style="display:inline;fill:#2698c6;fill-opacity:1;stroke:#2698c6;stroke-width:0.713664;stroke-linejoin:round;stroke-dasharray:none;stroke-opacity:1;paint-order:stroke fill markers"
       id="path69"
       d="m 191.48391,166.62671 c -0.21908,0.0546 -0.33015,0.14176 -0.446,0.33167 -0.0322,0.08 -0.0668,0.15819 -0.10784,0.23401 0,0 0.41156,0.0198 0.41156,0.0198 v 0 c 0.0382,-0.0758 0.0711,-0.15353 0.10617,-0.23079 0.1175,-0.181 0.23505,-0.25234 0.44616,-0.30002 z" /><path
       style="display:inline;fill:#2698c6;fill-opacity:1;stroke:#2698c6;stroke-width:0.713664;stroke-linejoin:round;stroke-dasharray:none;stroke-opacity:1;paint-order:stroke fill markers"
       id="path70"
       d="m 191.27476,166.87703 c -0.12294,0.12842 -0.22576,0.26949 -0.29456,0.43355 -0.015,0.0609 -0.0395,0.11748 -0.0676,0.17316 0,0 0.41305,0.0187 0.41305,0.0187 v 0 c 0.0265,-0.0568 0.0496,-0.11456 0.0663,-0.17522 0.0683,-0.1581 0.16917,-0.2961 0.29523,-0.4139 z" /><path
       style="display:inline;fill:#2698c6;fill-opacity:1;stroke:#2698c6;stroke-width:0.713664;stroke-linejoin:round;stroke-dasharray:none;stroke-opacity:1;paint-order:stroke fill markers"
       id="path73"
       d="m 232.8251,206.90038 c 0.028,0.007 0.0559,0.0145 0.084,0.0208 0.12694,0.0287 0.11169,0.0194 0.23974,0.0567 0.10567,0.0308 0.20899,0.0703 0.31331,0.10529 0.12788,0.0488 0.2641,0.0626 0.39651,0.0924 0.0501,0.0128 0.0999,0.0261 0.14906,0.042 0,0 0.40956,-0.0505 0.40956,-0.0505 v 0 c -0.0494,-0.0195 -0.0998,-0.0325 -0.15122,-0.0459 -0.13215,-0.0363 -0.27099,-0.0414 -0.40071,-0.0889 -0.20863,-0.0671 -0.41319,-0.14798 -0.63062,-0.18359 z" /><path
       style="display:inline;fill:#2698c6;fill-opacity:1;stroke:#2698c6;stroke-width:0.713664;stroke-linejoin:round;stroke-dasharray:none;stroke-opacity:1;paint-order:stroke fill markers"
       id="path74"
       d="m 234.58,208.07132 c 0.002,0.0194 0.004,0.0387 0.006,0.0581 0,0 0.41143,-0.004 0.41143,-0.004 v 0 c -8.9e-4,-0.0182 -0.003,-0.0365 -0.004,-0.0546 z" /><path
       style="display:inline;fill:#2698c6;fill-opacity:1;stroke:#2698c6;stroke-width:0.713664;stroke-linejoin:round;stroke-dasharray:none;stroke-opacity:1;paint-order:stroke fill markers"
       id="path75"
       d="m 234.38422,210.8549 c 0.14676,0.10259 0.30452,0.18374 0.47341,0.24238 0.15225,0.0423 0.31002,0.0578 0.46381,0.0938 0.14753,0.0339 0.26322,0.12165 0.37079,0.22322 0.0882,0.0814 0.16955,0.1672 0.23938,0.26482 0.0563,0.0808 0.10056,0.14889 0.19237,0.19054 0.13119,0.0336 0.26863,0.0296 0.4031,0.0305 0.12233,-0.0339 0.50277,0.0663 0.6618,-0.0729 0.0343,-0.03 0.0452,-0.0568 0.0671,-0.0953 0.044,-0.12013 0.0408,-0.25035 0.0582,-0.37591 0.036,-0.19861 -0.19805,-0.2296 -0.3427,-0.24672 -0.26859,-0.009 -0.15699,-0.007 -0.62605,-0.003 -0.0324,0 -0.0647,0.003 -0.0971,0.004 -0.028,9e-4 -0.11214,0.004 -0.0841,0.004 0.42476,0.004 0.43856,0.008 0.28344,-0.006 -0.10364,-0.0285 -0.18742,-0.10362 -0.27505,-0.1635 -0.0656,-0.0425 -0.0318,-0.0226 -0.10159,-0.0594 0,0 -0.40869,0.0458 -0.40869,0.0458 v 0 c 0.0696,0.0311 0.0358,0.0134 0.10114,0.0533 0.0907,0.0629 0.17808,0.13398 0.27687,0.18256 0.20849,0.0377 0.0566,0.0136 0.52749,0.01 0.0594,0 0.23742,-0.006 0.17805,-0.008 -0.097,-0.003 -0.19415,-0.002 -0.29123,-0.002 -0.0389,0 0.0778,9e-4 0.11665,9e-4 0.0941,0.006 0.25748,0.008 0.32451,0.0927 0.0222,0.028 0.0108,0.0584 0.007,0.0892 -0.0149,0.11994 -0.0106,0.24578 -0.0579,0.35868 -0.0229,0.0342 -0.0294,0.0511 -0.0648,0.0747 -0.12662,0.0841 -0.52557,0.0403 0.15148,0.0523 -0.13248,0 -0.26564,8.9e-4 -0.39721,-0.0168 -0.10762,-0.0311 -0.12651,-0.079 -0.19172,-0.16548 -0.069,-0.10178 -0.15101,-0.18996 -0.24164,-0.27286 -0.10883,-0.10581 -0.22372,-0.20399 -0.37398,-0.24435 -0.15305,-0.04 -0.31006,-0.0565 -0.46427,-0.0906 -0.1677,-0.0524 -0.32727,-0.12568 -0.46752,-0.23313 z" /><path
       style="display:inline;fill:#2698c6;fill-opacity:1;stroke:#2698c6;stroke-width:0.713664;stroke-linejoin:round;stroke-dasharray:none;stroke-opacity:1;paint-order:stroke fill markers"
       id="path76"
       d="m 252.34023,223.36555 c 0.0173,0.0856 0.009,0.0414 0.0262,0.1324 0,0 0.40965,-0.007 0.40965,-0.007 v 0 c -0.016,-0.09 -0.009,-0.0467 -0.0222,-0.13002 z" /><path
       style="display:inline;fill:#2698c6;fill-opacity:1;stroke:#2698c6;stroke-width:0.713664;stroke-linejoin:round;stroke-dasharray:none;stroke-opacity:1;paint-order:stroke fill markers"
       id="path77"
       d="m 251.90022,223.0258 c 0.17888,0.21448 0.35053,0.43493 0.52175,0.65555 0.12634,0.15046 0.26704,0.28927 0.41012,0.42385 0.12698,0.1196 0.24974,0.24283 0.36923,0.36984 0.12626,0.1381 0.24454,0.28346 0.35948,0.43104 0.12036,0.14589 0.22966,0.30013 0.34928,0.44659 0.0188,0.0222 0.0376,0.0444 0.0564,0.0666 0,0 0.40685,-0.0288 0.40685,-0.0288 v 0 c -0.019,-0.0219 -0.0379,-0.0438 -0.0569,-0.0658 -0.12066,-0.14555 -0.22903,-0.3004 -0.35059,-0.44525 -0.11421,-0.14905 -0.23173,-0.29601 -0.35786,-0.43524 -0.12073,-0.12682 -0.24124,-0.25332 -0.36978,-0.37247 -0.14449,-0.13196 -0.28239,-0.27223 -0.41351,-0.41727 -0.17398,-0.21715 -0.3494,-0.4332 -0.51322,-0.65823 z"
       inkscape:label="path77" /></g><g
     inkscape:groupmode="layer"
     id="layer3"
     inkscape:label="A"
     style="display:inline"
     transform="translate(-7.2775882,-147.6595)"><path
       id="path9"
       style="display:inline;fill:#a4a4a4;fill-opacity:1;stroke:#a4a4a4;stroke-width:0.750873;stroke-linejoin:round;stroke-opacity:1;paint-order:stroke fill markers"
       d="m 113.94241,206.70457 -0.13083,-2.09329 2.87827,2.61661 z m 0,-2.22412 3.53243,-4.70989 7.19567,3.53242 h 1.83161 l 7.06484,10.59726 -9.15812,-3.79408 2.09328,5.36404 z m -34.931717,3.53242 9.288954,12.69055 H 102.2985 l 4.84072,3.53242 -3.53241,-5.10239 -5.233223,-3.66325 c 0,0 -4.84072,-6.67234 -3.79408,-7.06484 l 1.96245,-6.67235 6.803193,6.41069 -3.532423,-8.50397 8.896473,7.06484 h 5.10238 l -0.13083,-1.96246 -3.27076,0.13084 -12.298063,-12.29806 z m -20.409536,18.05459 20.6712,-17.53127 8.76564,12.42889 6.934,-0.13083 4.97156,5.10239 -6.41069,-3.4016 -5.75653,0.13084 -8.634816,-8.89648 1.7008,5.36405 -7.064839,-3.92491 5.364039,9.15813 -8.765631,-3.66325 -14.260507,8.89646 z" /><path
       style="display:inline;fill:#2698c6;fill-opacity:1;stroke:#2698c6;stroke-width:2.01854;stroke-linejoin:round;stroke-dasharray:none;stroke-opacity:1;paint-order:stroke fill markers"
       d="m 78.649984,256.07213 c -1.084254,-0.52292 -0.845736,-1.36777 0.6831,-2.41964 0.762878,-0.52488 1.476818,-1.23715 1.586529,-1.58283 0.10972,-0.34568 0.611886,-0.84176 1.115929,-1.10241 0.697662,-0.36078 0.916447,-0.69323 0.916447,-1.39258 0,-0.50526 0.344441,-2.00332 0.765428,-3.32901 0.554607,-1.74648 0.680828,-2.56839 0.4583,-2.9842 -0.411435,-0.76877 -0.947565,-0.72436 -2.841482,0.23536 l -1.596952,0.80924 -0.88296,-0.65279 c -1.033708,-0.76426 -2.847775,-0.85875 -3.523019,-0.1835 -0.802858,0.80285 -2.189042,0.58363 -2.967515,-0.46931 -0.884863,-1.19684 -2.101722,-1.27062 -2.608593,-0.15818 -0.195577,0.42924 -0.834173,1.06281 -1.419098,1.40793 -1.320628,0.77919 -1.445081,0.78153 -1.037318,0.0197 0.232099,-0.43368 0.214978,-0.85004 -0.0597,-1.45296 -0.343794,-0.75454 -0.310432,-0.89463 0.311429,-1.30753 0.905072,-0.60095 0.88146,-1.43685 -0.07604,-2.69222 -1.084604,-1.42199 -1.087073,-2.58859 -0.009,-4.21312 0.696765,-1.04987 0.826344,-1.47456 0.572779,-1.87723 -0.499168,-0.79271 -1.109241,-0.77796 -3.034141,0.0734 l -1.763153,0.77974 -0.0045,1.97267 c -0.0054,2.34708 -0.15127,2.6236 -1.481352,2.81389 -0.902899,0.12917 -1.016838,0.0621 -1.016838,-0.59848 0,-0.5561 -0.279656,-0.86082 -1.107463,-1.2067 -1.040631,-0.43481 -1.095145,-0.52846 -0.90316,-1.55182 0.125737,-0.67025 0.06204,-1.26058 -0.165734,-1.53499 -0.268953,-0.32407 -0.278641,-0.61666 -0.03546,-1.07105 0.453865,-0.84806 0.459692,-0.83054 -0.609103,-1.82942 l -0.943686,-0.88196 6.740258,-4.17827 6.740267,-4.17827 4.210303,1.75921 c 2.315659,0.96755 4.353368,1.7592 4.528223,1.7592 0.673063,0 0.245916,-1.10216 -1.715749,-4.42707 -1.118524,-1.89582 -2.033669,-3.49706 -2.033669,-3.55831 0,-0.0612 1.111431,0.51366 2.469856,1.27758 2.382078,1.33959 3.474718,1.69034 3.474718,1.11542 0,-0.15044 -0.212689,-0.87637 -0.472646,-1.61316 -0.259958,-0.7368 -0.420368,-1.39193 -0.356454,-1.45583 0.06392,-0.0639 1.686436,1.5172 3.605626,3.51356 l 3.489446,3.62975 2.73337,-0.21092 2.73339,-0.21092 3.26169,1.75212 c 4.901633,2.63309 5.387693,2.29025 1.83032,-1.29101 l -2.26049,-2.27568 h 2.97715 2.977163 l 2.59996,1.90835 c 3.55303,2.60791 3.95046,2.17592 1.39645,-1.5178 -1.55679,-2.2515 -2.36566,-3.07015 -4.5593,-4.61434 -2.120243,-1.49252 -2.959113,-2.32606 -4.093383,-4.06734 -2.30198,-3.5339 -2.29975,-3.52419 -1.48905,-6.49055 0.38823,-1.42052 0.81813,-2.78527 0.95533,-3.03279 0.18965,-0.34213 0.96315,0.23919 3.22633,2.42477 2.640183,2.54964 3.971933,3.42518 3.971933,2.61127 0,-0.14493 -0.57359,-1.6363 -1.27466,-3.31414 -0.70106,-1.67784 -1.22903,-3.09164 -1.17327,-3.14176 0.0557,-0.0501 1.6992,1.15965 3.65208,2.68839 l 3.5507,2.77953 3.01963,0.007 c 1.6608,0.004 3.54055,0.12847 4.17725,0.27638 1.03314,0.24001 4.29473,2.8617 9.71677,7.81043 1.39082,1.26941 1.65899,0.5194 0.71299,-1.99392 -0.44077,-1.17104 -0.76438,-2.15735 -0.71913,-2.19181 0.0453,-0.0345 1.80573,0.65594 3.91214,1.53421 l 3.82984,1.59687 0.003,10.26715 c 0.002,6.1616 0.12652,10.49825 0.31215,10.84509 0.17011,0.31786 0.92722,0.81393 1.68246,1.10234 1.26092,0.48156 1.45172,0.48378 2.33458,0.0272 1.15458,-0.59707 1.93307,-0.63994 1.92578,-0.10608 -0.003,0.2151 -0.74211,0.70152 -1.64259,1.08092 -1.25239,0.52769 -1.98973,0.64647 -3.13682,0.50532 -1.33596,-0.16437 -1.54758,-0.29939 -1.93949,-1.23735 -0.51144,-1.22407 -0.90289,-1.2776 -5.07733,-0.69428 -2.99555,0.41858 -3.52921,0.1915 -3.52921,-1.50176 0,-1.41499 -0.71106,-1.66112 -2.24635,-0.77752 l -1.19996,0.69061 -1.20111,-1.18397 c -0.66062,-0.65118 -2.08354,-1.93126 -3.16206,-2.84461 l -1.96095,-1.66063 -1.76332,0.21434 c -1.94087,0.23594 -3.42225,0.86083 -3.68908,1.55617 -0.095,0.2476 0.084,1.1642 0.39782,2.03689 0.51588,1.43465 0.52538,1.66729 0.099,2.42752 -0.35112,0.6261 -0.78816,0.88357 -1.71142,1.00822 -1.70938,0.2308 -2.02208,0.49169 -2.02208,1.6871 0,0.97495 -0.0746,1.04541 -1.27774,1.20679 -0.99643,0.13365 -1.40974,0.0394 -1.87724,-0.42812 -0.32973,-0.32972 -0.88108,-0.59949 -1.22524,-0.59949 -0.75695,0 -0.75499,0.16073 -0.0239,-1.96415 0.331,-0.96209 0.52744,-2.03369 0.43653,-2.38134 -0.2167,-0.82867 0.56604,-1.01408 3.81118,-0.90277 2.48518,0.0852 2.50365,0.0801 2.59708,-0.72379 0.10836,-0.93227 -1.39653,-2.46299 -3.8146,-3.88007 -1.79348,-1.05105 -2.25374,-0.94565 -4.802123,1.09973 -1.60938,1.29171 -2.01334,1.80941 -2.29988,2.94739 -0.32301,1.28276 -0.43546,1.39528 -1.58932,1.59022 -1.41,0.23822 -1.75876,0.79317 -1.28584,2.04604 0.29132,0.7718 0.25003,0.88719 -0.37344,1.04367 -0.38554,0.0968 -1.27551,0.79923 -1.97771,1.56103 -2.11554,2.29508 -2.11198,4.68845 0.008,5.67734 l 1.02246,0.47684 -2.65942,2.78123 c -2.22394,2.32579 -3.03438,2.9474 -4.949236,3.79605 -2.183853,0.96789 -2.334135,1.10296 -3.247305,2.9188 -0.526614,1.04717 -1.11531,2.0074 -1.308211,2.13382 -0.488726,0.32029 -1.472769,0.25952 -2.306196,-0.14241 z"
       id="path13" /><path
       style="display:inline;fill:url(#swatch1);fill-opacity:1;stroke:url(#swatch1);stroke-width:2.01854;stroke-linejoin:round;stroke-dasharray:none;stroke-opacity:1;paint-order:stroke fill markers"
       d="m 68.872713,216.23641 c 0,-0.0934 0.563171,-0.91577 1.251496,-1.82744 1.141499,-1.5119 1.251488,-1.82498 1.251488,-3.56226 0,-1.289 -0.154089,-2.05877 -0.476695,-2.38137 -0.427012,-0.42701 -0.414838,-0.50981 0.116848,-0.79436 0.443576,-0.23739 0.633128,-0.77478 0.750228,-2.12685 0.1844,-2.12936 -0.04058,-2.68345 -1.301836,-3.20587 -0.848169,-0.35132 -1.097722,-0.29456 -2.676637,0.60881 -0.957701,0.54793 -2.22069,1.44841 -2.806656,2.00104 l -1.065392,1.0048 -0.829881,-0.60453 c -0.688424,-0.50148 -1.159239,-0.57358 -2.762036,-0.42301 -1.06269,0.0998 -2.438666,0.39373 -3.057726,0.65308 -0.979132,0.41021 -1.339508,0.41513 -2.77,0.0378 -0.904434,-0.23858 -1.667905,-0.47789 -1.696581,-0.53178 -0.02873,-0.0539 -0.213074,-0.55559 -0.409764,-1.11485 -0.338803,-0.96332 -0.31827,-1.01683 0.390166,-1.01683 0.898805,0 1.792735,-1.22086 1.646753,-2.24899 -0.09282,-0.6537 -0.389053,-0.76973 -3.181704,-1.24627 -1.693636,-0.28901 -3.171962,-0.62287 -3.285156,-0.74191 -0.113204,-0.11904 0.06653,-0.37592 0.399386,-0.57083 0.332868,-0.19492 1.193696,-0.88268 1.91296,-1.52835 1.110623,-0.99699 1.45553,-1.1444 2.288087,-0.97788 1.24339,0.24868 2.030149,-0.34105 1.780741,-1.33477 -0.147087,-0.58602 0.111856,-0.94788 1.415902,-1.97867 1.330673,-1.05184 1.830873,-1.26149 3.009666,-1.26149 1.311156,0 1.400882,0.0513 1.236522,0.70613 -0.108203,0.4311 0.09488,1.19272 0.521415,1.95545 0.68591,1.22656 0.745865,1.25699 3.288748,1.66997 2.463742,0.40013 2.672112,0.38736 4.271057,-0.2616 1.701555,-0.69062 2.162836,-1.19592 1.84584,-2.02201 -0.14117,-0.36789 0.264241,-0.47275 2.116824,-0.54753 l 2.291436,-0.0925 0.712682,-1.29414 c 1.123318,-2.03985 0.849417,-2.26822 -2.844193,-2.37149 -2.473564,-0.0691 -3.157831,-0.18266 -3.08853,-0.51233 0.14135,-0.67244 -0.25142,-1.61018 -0.674418,-1.61018 -0.212734,0 -1.140502,-0.37559 -2.061689,-0.83464 -1.599412,-0.79701 -1.758799,-0.81731 -3.536092,-0.45021 -1.023644,0.21143 -1.923195,0.3224 -1.998996,0.24661 -0.07577,-0.0758 -0.361876,-1.3581 -0.635732,-2.84954 -0.481014,-2.61964 -0.541606,-2.74152 -1.784592,-3.58957 -0.707664,-0.48283 -2.483404,-1.26979 -3.946081,-1.7488 -1.462677,-0.47901 -2.71456,-0.91865 -2.781958,-0.97697 -0.06743,-0.0584 0.214018,-0.37856 0.625371,-0.71166 0.743881,-0.60236 0.745066,-0.6133 0.219683,-2.03086 l -0.528238,-1.42525 1.154355,-0.17977 c 2.012193,-0.31337 8.413199,-2.99386 9.239525,-3.86917 0.44732,-0.47382 1.13481,-1.982 1.623473,-3.5615 1.001406,-3.2368 2.233582,-4.75014 4.790121,-5.88312 1.549772,-0.68682 1.692747,-0.70165 1.971002,-0.20444 0.165007,0.29485 0.649019,0.53609 1.075591,0.53609 0.648894,0 0.908564,-0.30664 1.589716,-1.87723 0.756773,-1.74498 0.886119,-1.87724 1.835875,-1.87724 0.760723,0 1.250212,-0.25978 1.91603,-1.01684 0.605988,-0.68903 1.700702,-1.31995 3.395792,-1.9571 2.003629,-0.75313 2.521417,-1.08006 2.601491,-1.64258 0.104343,-0.73296 0.369077,-0.81961 1.542905,-0.50504 0.703318,0.18848 0.703004,0.19018 -0.234649,1.2581 -1.195707,1.36184 -1.181334,1.8458 0.07793,2.62305 1.791631,1.10587 2.436991,1.12798 3.340521,0.11443 0.7538,-0.84558 0.84459,-0.87214 1.32674,-0.38806 0.31555,0.31682 1.32173,0.60576 2.57781,0.74027 1.88489,0.20186 2.1075,0.16226 2.6157,-0.46535 0.83443,-1.03047 1.99389,-0.56769 3.91235,1.56156 1.23557,1.37134 2.123293,2.01811 3.627863,2.64317 1.91212,0.79438 2.04097,0.80797 3.21327,0.3389 2.45881,-0.98382 5.08048,-0.50504 7.82725,1.42944 0.60893,0.42886 1.38348,0.58488 2.90348,0.58488 1.49684,0 2.58017,0.21346 3.8976,0.76796 1.58288,0.66622 2.08935,0.73758 3.82326,0.53868 2.10808,-0.24183 5.09429,0.14299 8.0215,1.03366 l 1.64258,0.4998 v 24.46865 24.46864 l -3.28811,-4.92622 c -3.20274,-4.79831 -3.31661,-4.92622 -4.38543,-4.92622 -0.7056,0 -2.32217,-0.61429 -4.52849,-1.7208 -1.88716,-0.94645 -3.54724,-1.72081 -3.68909,-1.72081 -0.14185,0 -1.08642,1.12635 -2.09906,2.50299 -1.83501,2.49463 -1.84593,2.50298 -3.27014,2.50298 h -1.42896 l -6.09501,-6.10102 c -3.35225,-3.35556 -6.209913,-6.10102 -6.350363,-6.10102 -0.47188,0 -19.365501,15.43929 -19.571196,15.99298 -0.171911,0.46277 -9.266136,8.41109 -9.623694,8.41109 -0.06724,0 -0.122235,-0.0764 -0.122235,-0.16986 z"
       id="path14" /><path
       style="display:inline;fill:#2698c6;fill-opacity:1;stroke:#2698c6;stroke-width:2.01854;stroke-linejoin:round;stroke-dasharray:none;stroke-opacity:1;paint-order:stroke fill markers"
       d="m 69.115325,263.4755 c -0.418033,-0.41803 0.181921,-1.3898 0.858036,-1.3898 0.483124,0 0.920963,-0.34946 1.350973,-1.07827 0.7532,-1.27657 2.713348,-2.36333 4.262681,-2.36333 0.60913,0 1.107517,0.10076 1.107517,0.2239 0,0.12314 -0.655654,0.88957 -1.457012,1.70316 -1.210028,1.2285 -1.600499,1.45055 -2.303521,1.30995 -0.688504,-0.1377 -0.975307,0.0116 -1.536584,0.79983 -0.630543,0.88552 -1.788103,1.28855 -2.28209,0.79456 z"
       id="path20" /><path
       style="display:inline;fill:#2698c6;fill-opacity:1;stroke:#2698c6;stroke-width:2.01854;stroke-linejoin:round;stroke-dasharray:none;stroke-opacity:1;paint-order:stroke fill markers"
       d="m 156.04907,247.36951 c -1.71006,-1.3926 -2.45784,-1.53644 -3.11441,-0.59905 -0.41417,0.59131 -0.48869,0.60176 -0.95636,0.1341 -0.27895,-0.27896 -0.50719,-0.90229 -0.50719,-1.38516 0,-1.11916 -0.69866,-1.70839 -1.72133,-1.45171 -0.77658,0.1949 -0.7704,0.17004 0.34364,-1.38063 1.71308,-2.38448 2.93939,-2.87266 2.946,-1.17275 0.004,0.83909 0.30552,1.28133 1.7292,2.52997 1.51474,1.32848 3.6949,4.60703 3.04343,4.57673 -0.13196,-0.006 -0.9253,-0.56932 -1.76298,-1.2515 z"
       id="path21" /><path
       style="display:inline;fill:#2698c6;fill-opacity:1;stroke:#2698c6;stroke-width:0.713664;stroke-linejoin:round;stroke-dasharray:none;stroke-opacity:1;paint-order:stroke fill markers"
       d="m 140.87486,240.60207 c -1.3218,-0.2231 -1.355,-0.23566 -1.35262,-0.51183 0.004,-0.48911 0.40038,-1.22336 0.66011,-1.22336 0.12699,0 0.67697,0.29995 1.2222,0.66656 0.87638,0.58927 0.9913,0.7047 0.9913,0.99555 0,0.18095 -0.0374,0.32287 -0.0829,0.31539 -0.0456,-0.007 -0.69275,-0.11653 -1.43803,-0.24231 z"
       id="path24" /><path
       style="display:inline;fill:#2698c6;fill-opacity:1;stroke:#2698c6;stroke-width:0.713664;stroke-linejoin:round;stroke-dasharray:none;stroke-opacity:1;paint-order:stroke fill markers"
       d="m 143.98712,242.71889 c 0.0745,-0.37268 0.14424,-0.49413 0.23276,-0.40559 0.0298,0.0298 0.0858,0.21229 0.12445,0.40559 0.0623,0.31155 0.042,0.35144 -0.1786,0.35144 -0.22063,0 -0.24092,-0.0399 -0.17861,-0.35144 z"
       id="path26" /><path
       style="display:inline;fill:#2698c6;fill-opacity:1;stroke:#2698c6;stroke-width:0.713664;stroke-linejoin:round;stroke-dasharray:none;stroke-opacity:1;paint-order:stroke fill markers"
       d="m 160.93385,255.96277 c -0.44521,-0.52111 -0.60449,-0.85955 -1.17491,-2.49627 -0.36294,-1.04138 -0.65989,-1.98966 -0.65989,-2.10727 0,-0.16163 0.0774,-0.21384 0.31703,-0.21384 0.28935,0 0.39625,0.13227 1.22491,1.51569 0.70593,1.17854 0.96518,1.72981 1.16551,2.47834 0.14169,0.52947 0.29072,1.06696 0.33119,1.19443 0.0649,0.20469 0.029,0.23178 -0.30763,0.23178 -0.32486,0 -0.45726,-0.0891 -0.89621,-0.60286 z"
       id="path27" /><path
       style="display:inline;fill:#2698c6;fill-opacity:1;stroke:#2698c6;stroke-width:0.713664;stroke-linejoin:round;stroke-dasharray:none;stroke-opacity:1;paint-order:stroke fill markers"
       id="path65"
       d="m 143.96547,243.29175 c 0.012,0.15979 0.0732,0.3085 0.12367,0.45887 0.0505,0.1228 0.0857,0.25126 0.12154,0.37892 0,0 0.40922,-0.0111 0.40922,-0.0111 v 0 c -0.0358,-0.12803 -0.0687,-0.2579 -0.11938,-0.38097 -0.0489,-0.14786 -0.11311,-0.29341 -0.1213,-0.45077 z" /><path
       style="font-size:38.9187px;font-family:'DM Sans';-inkscape-font-specification:'DM Sans';text-align:center;letter-spacing:1.0967px;word-spacing:2.41274px;text-anchor:middle;fill:url(#swatch2);stroke:#000000;stroke-width:1.03608;stroke-linejoin:round;paint-order:stroke fill markers"
       d="m 145.70178,217.42947 9.30157,-27.24309 h 5.05943 l 9.14589,27.24309 h -3.46376 l -8.13401,-24.83013 h -0.15567 l -8.32861,24.83013 z m 4.59241,-8.52319 0.93404,-2.64647 h 12.33723 l 0.93405,2.64647 z m 21.95713,8.52319 v -27.24309 h 3.26917 v 27.24309 z m 14.21229,0.46703 q -2.2962,0 -3.85295,-0.81729 -1.55674,-0.8173 -2.33512,-2.17945 -0.73945,-1.36216 -0.73945,-2.95782 0,-1.98486 1.01188,-3.34701 1.05081,-1.36216 2.9189,-2.06269 1.90702,-0.73946 4.47566,-0.73946 h 5.2151 q 0,-1.90701 -0.58378,-3.15241 -0.58378,-1.2454 -1.6735,-1.82918 -1.08973,-0.6227 -2.60756,-0.6227 -1.90701,0 -3.30809,0.97297 -1.40107,0.97296 -1.71242,2.99674 h -3.34701 q 0.23352,-2.10161 1.36216,-3.54161 1.16756,-1.43999 2.95782,-2.17944 1.82918,-0.77838 4.04754,-0.77838 2.76323,0 4.55349,1.01189 1.82918,0.97297 2.68539,2.76323 0.89513,1.75134 0.89513,4.12538 v 11.8702 h -2.72431 l -0.31135,-3.30809 h -0.15567 q -0.54486,0.93405 -1.28432,1.63459 -0.70053,0.70054 -1.55675,1.16756 -0.85621,0.46703 -1.86809,0.70054 -0.97297,0.27243 -2.0627,0.27243 z m 0.58379,-2.76323 q 1.47891,0 2.60755,-0.54486 1.12864,-0.58378 1.90701,-1.55675 0.77838,-0.97297 1.16757,-2.17945 0.4281,-1.2454 0.4281,-2.52971 v 0 h -4.94267 q -1.90702,0 -3.07458,0.46702 -1.16756,0.42811 -1.67351,1.20648 -0.50594,0.77838 -0.50594,1.79026 0,1.01189 0.46703,1.79026 0.50594,0.73946 1.40107,1.16756 0.93405,0.38919 2.21837,0.38919 z m 20.86742,2.76323 q -2.2962,0 -4.12538,-0.77838 -1.82918,-0.81729 -2.95783,-2.25728 -1.08972,-1.47891 -1.36215,-3.46376 h 3.34701 q 0.23351,0.97296 0.77837,1.90701 0.58378,0.89513 1.63459,1.47891 1.08972,0.58378 2.72431,0.58378 1.40107,0 2.2962,-0.38918 0.89513,-0.42811 1.32324,-1.08973 0.46702,-0.70053 0.46702,-1.51783 0,-1.01188 -0.58378,-1.63458 -0.58378,-0.6227 -1.71242,-1.05081 -1.08973,-0.46702 -2.60756,-0.89513 -1.16756,-0.35027 -2.37404,-0.73945 -1.20648,-0.42811 -2.21836,-1.01189 -0.97297,-0.58378 -1.59567,-1.51783 -0.58378,-0.93405 -0.58378,-2.33512 0,-1.55675 0.85621,-2.80215 0.85621,-1.2454 2.41296,-1.98485 1.59567,-0.73946 3.7362,-0.73946 3.07457,0 5.02051,1.51783 1.98485,1.51783 2.2962,4.39782 h -3.23025 q -0.15567,-1.63459 -1.2454,-2.4908 -1.0508,-0.89513 -2.87998,-0.89513 -1.79026,0 -2.76323,0.77837 -0.93405,0.77838 -0.93405,1.94594 0,0.77837 0.46703,1.28432 0.46702,0.50594 1.47891,0.89513 1.0508,0.35026 2.64647,0.85621 1.79026,0.54486 3.38593,1.20648 1.63458,0.66161 2.64647,1.75134 1.0508,1.0508 1.0508,2.87998 0.0389,1.79026 -0.89513,3.19134 -0.89513,1.36215 -2.56863,2.14052 -1.63459,0.77838 -3.93079,0.77838 z m 23.12466,-0.46703 -9.37941,-10.6248 8.44536,-8.67887 h 4.00863 l -9.65184,9.84643 v -2.33512 l 10.74156,11.79236 z m -12.10371,0 v -27.24309 h 3.26917 v 27.24309 z m 25.07066,0.46703 q -2.29621,0 -3.85295,-0.81729 -1.55675,-0.8173 -2.33513,-2.17945 -0.73945,-1.36216 -0.73945,-2.95782 0,-1.98486 1.01188,-3.34701 1.05081,-1.36216 2.91891,-2.06269 1.90701,-0.73946 4.47565,-0.73946 h 5.2151 q 0,-1.90701 -0.58378,-3.15241 -0.58378,-1.2454 -1.6735,-1.82918 -1.08972,-0.6227 -2.60755,-0.6227 -1.90702,0 -3.30809,0.97297 -1.40108,0.97296 -1.71243,2.99674 h -3.347 q 0.23351,-2.10161 1.36215,-3.54161 1.16756,-1.43999 2.95782,-2.17944 1.82918,-0.77838 4.04755,-0.77838 2.76322,0 4.55348,1.01189 1.82918,0.97297 2.68539,2.76323 0.89513,1.75134 0.89513,4.12538 v 11.8702 h -2.7243 l -0.31135,-3.30809 h -0.15568 q -0.54486,0.93405 -1.28432,1.63459 -0.70053,0.70054 -1.55674,1.16756 -0.85622,0.46703 -1.8681,0.70054 -0.97297,0.27243 -2.06269,0.27243 z m 0.58378,-2.76323 q 1.47891,0 2.60755,-0.54486 1.12864,-0.58378 1.90702,-1.55675 0.77837,-0.97297 1.16756,-2.17945 0.4281,-1.2454 0.4281,-2.52971 v 0 h -4.94267 q -1.90702,0 -3.07458,0.46702 -1.16756,0.42811 -1.6735,1.20648 -0.50595,0.77838 -0.50595,1.79026 0,1.01189 0.46703,1.79026 0.50594,0.73946 1.40107,1.16756 0.93405,0.38919 2.21837,0.38919 z m 33.95089,2.76323 q -2.99674,0 -5.21511,-1.08973 -2.21836,-1.08972 -3.42484,-3.03565 -1.20648,-1.94594 -1.20648,-4.51457 h 3.42484 q 0,1.59566 0.70054,2.95782 0.70054,1.32323 2.14053,2.14053 1.43999,0.77837 3.61944,0.77837 1.75134,0 3.07458,-0.50594 1.32323,-0.50595 2.06269,-1.51783 0.77837,-1.01189 0.77837,-2.52972 0,-1.51783 -0.70054,-2.49079 -0.66161,-1.01189 -1.82917,-1.67351 -1.16757,-0.66162 -2.60756,-1.12864 -1.40107,-0.50594 -2.87998,-1.01189 -3.5416,-1.2454 -5.21511,-2.99674 -1.63458,-1.79026 -1.63458,-4.39781 0,-2.06269 1.01188,-3.65836 1.05081,-1.63458 2.95783,-2.56863 1.94593,-0.93405 4.5924,-0.93405 2.60755,0 4.51457,0.97297 1.94594,0.97296 3.03566,2.68539 1.08972,1.6735 1.08972,3.89187 h -3.42484 q 0,-1.44 -0.6227,-2.52972 -0.6227,-1.08972 -1.82918,-1.71242 -1.20648,-0.66162 -3.03566,-0.66162 -1.43999,0 -2.60755,0.42811 -1.12864,0.4281 -1.79026,1.36215 -0.6227,0.93405 -0.6227,2.41296 0,1.2454 0.50594,2.06269 0.50594,0.81729 1.47891,1.43999 1.01189,0.58378 2.45188,1.16756 1.47891,0.54487 3.38593,1.2454 1.98485,0.70054 3.5416,1.67351 1.59567,0.93405 2.4908,2.37404 0.93404,1.43999 0.93404,3.65836 0,1.98485 -1.01188,3.77511 -1.01189,1.75134 -3.03566,2.84106 -2.02377,1.08973 -5.09835,1.08973 z m 21.6847,0 q -2.76323,0 -4.90376,-1.2454 -2.14053,-1.28432 -3.38593,-3.5416 -1.20648,-2.29621 -1.20648,-5.33186 0,-3.07458 1.20648,-5.33187 1.20648,-2.25728 3.34701,-3.50268 2.17945,-1.28432 5.02051,-1.28432 2.84107,0 4.86484,1.28432 2.02377,1.2454 3.1135,3.30809 1.08972,2.02377 1.08972,4.43673 0,0.38919 0,0.85621 0,0.42811 -0.0389,0.97297 h -16.15126 v -2.52971 h 12.95993 q -0.11676,-2.76323 -1.79026,-4.28106 -1.63459,-1.51783 -4.12538,-1.51783 -1.67351,0 -3.1135,0.73945 -1.43999,0.73946 -2.33512,2.21837 -0.85621,1.47891 -0.85621,3.7362 v 1.08972 q 0,2.41296 0.89513,4.00863 0.89513,1.59566 2.33512,2.41296 1.47891,0.77837 3.07458,0.77837 2.02377,0 3.38592,-0.93405 1.36216,-0.93405 1.98486,-2.56863 h 3.23025 q -0.50594,1.79026 -1.6735,3.19133 -1.16756,1.40107 -2.91891,2.21837 -1.71242,0.81729 -4.00862,0.81729 z m 12.57771,-0.46703 V 198.1258 h 2.87999 l 0.31135,4.20322 h 0.15567 q 0.97297,-2.10161 1.90702,-3.07458 0.93405,-1.01189 2.14053,-1.28432 1.24539,-0.31135 3.07457,-0.31135 v 3.42485 h -0.85621 q -1.55675,0 -2.76323,0.42811 -1.20648,0.38918 -1.98485,1.16756 -0.77837,0.77837 -1.20648,1.98485 -0.38919,1.16756 -0.38919,2.76323 v 10.0021 z m 18.88251,0 -6.92752,-19.30367 h 3.42484 l 5.52646,16.69612 h 0.15567 l 5.56538,-16.69612 h 3.347 l -6.92752,19.30367 z m 14.60148,0 V 198.1258 h 3.26917 v 19.30367 z m 1.63459,-23.15662 q -0.97297,0 -1.63459,-0.66162 -0.66162,-0.66162 -0.66162,-1.63459 0,-0.93405 0.66162,-1.59566 0.66162,-0.66162 1.63459,-0.66162 0.93405,0 1.59566,0.66162 0.66162,0.66161 0.66162,1.63458 0,0.93405 -0.66162,1.59567 -0.66161,0.66162 -1.59566,0.66162 z m 15.57447,23.62365 q -3.03566,0 -5.2151,-1.2454 -2.14053,-1.28432 -3.30809,-3.5416 -1.16756,-2.29621 -1.16756,-5.33186 0,-3.03566 1.24539,-5.29295 1.28432,-2.2962 3.46377,-3.5416 2.21836,-1.28432 4.98159,-1.28432 3.46377,0 5.79889,1.79026 2.33512,1.79026 2.95782,4.787 h -3.34701 q -0.38918,-1.98485 -1.90701,-2.99674 -1.51783,-1.0508 -3.54161,-1.0508 -1.63458,0 -3.07457,0.85621 -1.44,0.81729 -2.33513,2.4908 -0.89513,1.6735 -0.89513,4.24214 0,1.82917 0.46703,3.23025 0.50594,1.36215 1.36215,2.2962 0.85621,0.93405 1.98486,1.40107 1.16756,0.46703 2.49079,0.46703 1.36216,0 2.4908,-0.42811 1.12864,-0.46702 1.90702,-1.32323 0.77837,-0.89513 1.0508,-2.10161 h 3.34701 q -0.6227,2.9189 -2.95782,4.74808 -2.33512,1.82918 -5.79889,1.82918 z m 21.29552,0 q -2.76323,0 -4.90375,-1.2454 -2.14053,-1.28432 -3.38593,-3.5416 -1.20648,-2.29621 -1.20648,-5.33186 0,-3.07458 1.20648,-5.33187 1.20648,-2.25728 3.34701,-3.50268 2.17944,-1.28432 5.02051,-1.28432 2.84106,0 4.86484,1.28432 2.02377,1.2454 3.11349,3.30809 1.08973,2.02377 1.08973,4.43673 0,0.38919 0,0.85621 0,0.42811 -0.0389,0.97297 H 377.7478 v -2.52971 h 12.95992 q -0.11675,-2.76323 -1.79026,-4.28106 -1.63458,-1.51783 -4.12538,-1.51783 -1.6735,0 -3.11349,0.73945 -1.44,0.73946 -2.33513,2.21837 -0.85621,1.47891 -0.85621,3.7362 v 1.08972 q 0,2.41296 0.89513,4.00863 0.89513,1.59566 2.33512,2.41296 1.47891,0.77837 3.07458,0.77837 2.02377,0 3.38593,-0.93405 1.36215,-0.93405 1.98485,-2.56863 h 3.23025 q -0.50594,1.79026 -1.6735,3.19133 -1.16756,1.40107 -2.9189,2.21837 -1.71243,0.81729 -4.00863,0.81729 z m 24.06554,-0.46703 v -27.24309 h 3.26917 v 24.63554 h 12.6875 v 2.60755 z m 19.85548,0 V 198.1258 h 3.26917 v 19.30367 z m 1.63459,-23.15662 q -0.97297,0 -1.63459,-0.66162 -0.66162,-0.66162 -0.66162,-1.63459 0,-0.93405 0.66162,-1.59566 0.66162,-0.66162 1.63459,-0.66162 0.93404,0 1.59566,0.66162 0.66162,0.66161 0.66162,1.63458 0,0.93405 -0.66162,1.59567 -0.66162,0.66162 -1.59566,0.66162 z m 6.46749,23.15662 V 198.1258 h 2.87999 l 0.31135,3.03566 h 0.15567 q 1.01189,-1.59567 2.64647,-2.52972 1.63459,-0.97297 3.93079,-0.97297 2.21837,0 3.89187,0.93405 1.67351,0.89513 2.56864,2.80215 0.93405,1.8681 0.93405,4.74808 v 11.28642 h -3.26917 v -10.93615 q 0,-2.99674 -1.28432,-4.51457 -1.28432,-1.51783 -3.69728,-1.51783 -1.6735,0 -2.99674,0.81729 -1.28431,0.8173 -2.06269,2.37404 -0.73945,1.51783 -0.73945,3.77512 v 10.0021 z m 33.63276,0 -9.37941,-10.6248 8.44536,-8.67887 h 4.00862 l -9.65183,9.84643 v -2.33512 l 10.74156,11.79236 z m -12.10372,0 v -27.24309 h 3.26917 v 27.24309 z"
       id="text1"
       transform="scale(0.96623754,1.0349422)"
       aria-label="Alaska Service Link" /><path
       style="display:inline;fill:#2698c6;fill-opacity:1;stroke:#2698c6;stroke-width:3;stroke-linejoin:round;stroke-opacity:1;paint-order:stroke fill markers"
       id="path2"
       d="m 64.273911,265.82899 c -0.366067,0.003 -0.732139,0 -1.098206,0 0,0 -0.963557,0.15261 -0.963557,0.15261 v 0 c 0.36205,-1.9e-4 0.724101,0 1.086149,0 z" /><path
       style="display:inline;fill:#2698c6;fill-opacity:1;stroke:#2698c6;stroke-width:3;stroke-linejoin:round;stroke-opacity:1;paint-order:stroke fill markers"
       id="path4"
       d="m 61.106256,267.14926 c -0.02098,0.0427 -0.04199,0.0853 -0.06298,0.12803 0,0 0.983274,0.0475 0.983274,0.0475 v 0 c 0.0227,-0.0407 0.04539,-0.0814 0.06808,-0.12205 z"
       inkscape:export-filename="aksl1_cut.svg"
       inkscape:export-xdpi="96"
       inkscape:export-ydpi="96" /></g></svg>
