<?xml version="1.0" encoding="UTF-8" standalone="no"?>
<!-- Created with Inkscape (http://www.inkscape.org/) -->

<svg
   width="226.87614mm"
   height="83.605759mm"
   viewBox="0 0 857.48465 315.99028"
   version="1.1"
   id="svg1"
   inkscape:version="1.4.2 (f4327f4, 2025-05-13)"
   sodipodi:docname="aksl1_no_underline.svg"
   inkscape:export-filename="aksl1_no_underline.svg"
   inkscape:export-xdpi="119.6917"
   inkscape:export-ydpi="119.6917"
   xmlns:inkscape="http://www.inkscape.org/namespaces/inkscape"
   xmlns:sodipodi="http://sodipodi.sourceforge.net/DTD/sodipodi-0.dtd"
   xmlns:xlink="http://www.w3.org/1999/xlink"
   xmlns="http://www.w3.org/2000/svg"
   xmlns:svg="http://www.w3.org/2000/svg">
  <sodipodi:namedview
     id="namedview1"
     pagecolor="#ffffff"
     bordercolor="#000000"
     borderopacity="0.25"
     inkscape:showpageshadow="2"
     inkscape:pageopacity="0.0"
     inkscape:pagecheckerboard="0"
     inkscape:deskcolor="#d1d1d1"
     inkscape:document-units="mm"
     inkscape:zoom="0.87"
     inkscape:cx="692.52874"
     inkscape:cy="304.02299"
     inkscape:window-width="1920"
     inkscape:window-height="1111"
     inkscape:window-x="-9"
     inkscape:window-y="-9"
     inkscape:window-maximized="1"
     inkscape:current-layer="layer8-1">
    <inkscape:page
       x="0"
       y="1.9440756e-21"
       width="857.48468"
       height="315.9903"
       id="page1"
       margin="0"
       bleed="0" />
  </sodipodi:namedview>
  <defs
     id="defs1">
    <linearGradient
       inkscape:collect="always"
       xlink:href="#linearGradient401"
       id="linearGradient413"
       gradientUnits="userSpaceOnUse"
       x1="219.47971"
       y1="502.80011"
       x2="143.58054"
       y2="371.33887"
       gradientTransform="matrix(0.39504268,0,0,0.39504268,-10.494549,-21.746329)" />
    <linearGradient
       id="linearGradient401"
       inkscape:collect="always">
      <stop
         style="stop-color:#aae5fd;stop-opacity:1;"
         offset="0.48366013"
         id="stop401" />
      <stop
         style="stop-color:#aae5fd;stop-opacity:0;"
         offset="1"
         id="stop402" />
    </linearGradient>
    <linearGradient
       inkscape:collect="always"
       xlink:href="#linearGradient403"
       id="linearGradient414"
       gradientUnits="userSpaceOnUse"
       x1="215.10559"
       y1="533.13464"
       x2="145.30498"
       y2="412.23642"
       gradientTransform="matrix(0.39504268,0,0,0.39504268,-10.494549,-21.746329)" />
    <linearGradient
       id="linearGradient403"
       inkscape:collect="always">
      <stop
         style="stop-color:#a4a4a4;stop-opacity:1;"
         offset="0.43464053"
         id="stop403" />
      <stop
         style="stop-color:#a4a4a4;stop-opacity:0;"
         offset="1"
         id="stop404" />
    </linearGradient>
    <linearGradient
       inkscape:collect="always"
       xlink:href="#linearGradient405"
       id="linearGradient415"
       gradientUnits="userSpaceOnUse"
       x1="232.41095"
       y1="648.34174"
       x2="187.24316"
       y2="392.1824"
       gradientTransform="matrix(0.39504268,0,0,0.39504268,-10.494549,-21.746329)" />
    <linearGradient
       id="linearGradient405"
       inkscape:collect="always">
      <stop
         style="stop-color:#2698c6;stop-opacity:1;"
         offset="0.53594774"
         id="stop405" />
      <stop
         style="stop-color:#2698c6;stop-opacity:0;"
         offset="1"
         id="stop406" />
    </linearGradient>
  </defs>
  <g
     inkscape:label="Layer 1"
     inkscape:groupmode="layer"
     id="layer1"
     transform="translate(-71.244389,-241.56859)">
    <g
       inkscape:groupmode="layer"
       id="layer8-1"
       inkscape:label="tester"
       style="display:inline"
       transform="matrix(3.7795277,0,0,3.7795277,-6.3744639,-235.78432)">
      <path
         style="display:none;fill:#f9f9f9;stroke:none;stroke-width:0.676799"
         d="m 239.31291,242.68447 c -4.25139,1.216 -7.38412,5.49642 -12.27546,4.67829 -10.42119,0.64238 -20.296,4.03044 -30.16708,6.86674 -6.2082,3.5747 -10.21554,10.1045 -15.98723,13.84979 -7.0866,1.05519 -14.7745,0.17981 -21.48217,2.85788 -3.55141,2.91784 1.12089,6.99492 2.08413,9.96226 3.47663,6.62694 6.36558,13.54337 8.09411,20.69529 2.34173,3.14919 5.30799,6.02713 5.92271,10.04186 1.22049,4.20658 3.79732,8.42476 4.23653,12.6412 -6.09444,2.88014 -13.22654,-0.5151 -18.53869,-3.51131 -3.78778,-2.65219 2.66427,-8.39216 -1.8232,-10.59572 -7.91412,-1.49762 -14.96012,3.88978 -22.78064,3.16866 -3.34635,0.47373 -8.71381,0.71881 -9.72241,4.3859 1.36963,3.53033 6.0446,5.97573 4.71043,10.35361 -0.60991,4.59667 -1.73097,10.41315 2.99208,13.50934 6.92616,5.25644 16.24356,4.84185 24.27285,7.61382 5.02707,1.62285 10.41053,-1.7674 15.20154,0.006 0.12572,6.43237 -2.79366,12.70636 -5.20404,18.63878 -2.44216,5.67076 -10.17882,4.21346 -15.26364,5.30841 -3.79441,-0.11154 -9.35173,3.33309 -12.04488,-0.59949 -0.77189,-2.55087 -3.88348,-4.24735 -5.98375,-1.8149 -8.58209,6.52748 -17.79055,13.00825 -23.76413,21.92437 -2.44486,3.5955 -0.55604,8.04145 2.78364,10.42313 3.26403,4.74729 -4.95704,8.83837 -2.63713,13.83782 1.93489,4.66513 2.74466,10.83055 7.56415,13.66136 4.90422,0.89098 9.94644,-0.40941 14.89769,0.0114 0.15288,4.24053 2.71544,8.69495 1.13,12.69271 -2.93227,2.39718 -2.48813,6.92441 -2.74159,10.30593 1.42611,3.59137 6.67641,1.92088 9.74143,2.74875 5.47837,0.66816 10.58908,3.67535 13.29286,8.31454 2.49357,1.64325 5.1577,-4.14701 7.56009,-0.89392 2.34161,3.00634 6.16411,3.93599 9.89471,2.98543 2.55017,-0.77898 2.90415,0.37181 1.5926,2.20295 -4.17786,7.44068 -8.21031,15.23514 -14.22757,21.49545 -4.64596,2.16678 -7.22853,6.76146 -11.6365,9.05002 -8.23326,1.95746 -16.28245,4.67742 -23.53081,8.95473 -5.53961,-0.28503 -11.5844,-3.17415 -16.45114,0.64628 -4.84435,1.80029 -8.92446,5.15386 -13.677937,6.93019 -7.057447,1.32068 -14.683518,0.29763 -21.472919,2.71012 -2.138474,1.89015 1.372405,3.23698 3.152636,2.74746 6.947621,0.0258 14.290824,0.97451 20.776996,-1.87415 4.047584,-0.26414 8.140984,-0.77629 11.572774,-3.04631 4.17836,-2.3802 8.34736,1.7467 12.77467,0.45985 7.22301,-1.34437 14.34862,-3.41101 21.80136,-3.18662 2.67526,-0.30893 8.13074,-0.43087 7.16652,-4.30484 -0.75633,-1.78457 -0.3345,-3.37641 1.96972,-3.53835 11.35244,-3.38181 22.93086,-6.85994 33.17941,-12.93412 9.15583,-5.29714 19.11852,-10.06457 26.46965,-17.60492 0.54112,-3.7229 -4.76844,-5.61974 -5.40451,-8.93025 2.62156,-7.53986 14.64643,-5.41345 17.37204,-12.91685 5.05608,-7.79638 11.59644,-15.8738 21.01846,-18.9824 3.86856,-1.37149 10.6997,0.46837 10.31117,4.73498 -5.12811,1.29753 -12.79802,0.0614 -15.20833,5.8234 -1.43119,5.35244 -5.87635,9.66118 -6.89808,15.04733 0.38349,1.92286 3.60269,1.3255 4.30299,1.96559 -1.19557,2.65434 -5.92877,3.81096 -5.45877,6.95563 3.84062,2.92451 8.85748,-0.89767 12.27502,-2.80923 5.39356,-3.36552 10.09468,-9.50319 17.35619,-8.37272 3.03448,-0.47709 8.84089,1.72515 8.5775,-2.99978 0.775,-3.67618 -0.59926,-9.04642 4.3844,-10.44761 3.61582,-1.49551 9.25099,-3.79551 11.90239,0.3671 6.13719,7.267 13.94973,13.72385 23.78992,15.7313 8.26677,2.02312 16.91387,2.34659 24.93465,5.28438 5.49312,1.37652 11.16419,1.91062 16.82145,2.21095 -0.4439,3.75183 1.71749,7.11024 5.4493,8.41759 6.54903,3.72642 12.79294,7.88948 19.03381,12.06028 4.26574,3.25005 9.36991,6.30983 10.45633,11.78333 5.91336,11.05988 12.8849,21.82032 21.65197,31.04912 1.608,1.80235 4.28098,2.00456 5.89965,0.15973 4.51115,-2.00442 6.09878,3.35639 7.7785,6.06426 3.69785,5.29741 3.55466,12.41628 8.11491,17.16235 2.35163,1.25393 4.15883,-2.05991 6.73394,-1.3061 3.29473,-1.48473 0.25943,-5.72877 0.63349,-8.2669 -1.47767,-3.783 0.62214,-5.4013 4.3939,-3.14032 4.20935,1.81722 8.84957,3.48686 11.02287,7.71001 2.18702,4.29559 4.33568,-0.60489 5.20966,-2.93898 1.83741,-5.09505 1.2525,-11.01822 -0.68777,-16.00693 -3.63841,-5.11793 -10.90301,-5.60326 -16.07925,-8.33646 -5.69864,-1.85363 -8.58417,-7.81387 -12.13222,-12.02732 -8.32946,-11.98437 -17.50986,-23.47247 -28.06041,-33.80504 -3.068,-2.73374 -5.15727,-6.91424 -8.95399,-8.69583 -5.49809,0.96693 -7.39936,6.87721 -10.00052,10.81083 -2.2865,1.54499 -5.11104,3.55432 -7.81377,3.69035 -6.72158,-7.9484 -12.82242,-16.71882 -21.19887,-23.21245 -4.88931,-1.37285 -10.2266,-0.11781 -15.25038,-0.17777 -1.20207,-58.52298 -0.82785,-117.06033 -0.90348,-175.5908 -4.19088,-3.83123 -9.96931,-6.32686 -15.25582,-8.8259 -4.46389,-1.04986 -8.3297,3.89358 -12.81692,1.24914 -9.77726,-2.72185 -19.57593,-6.24845 -28.81168,-10.55164 -5.67158,-1.67579 -12.95673,-0.91175 -17.38695,-5.21158 -1.74214,-2.70022 -3.10473,-7.98541 -7.57772,-6.5473 -1.96762,0.5638 -4.38145,2.76849 -5.39638,-0.31815 -3.1631,-3.93247 -6.2562,-8.81248 -11.3096,-10.63695 z"
         id="path4"
         transform="matrix(0.26458333,0,0,0.26458333,1.6865768,62.384599)" />
      <path
         style="display:inline;fill:#000000;stroke-width:1.49307"
         d="m 115.78123,209.52784 c -0.69835,-0.69546 -1.33518,-1.98608 -1.50227,-3.04452 -0.12989,-0.82285 -0.20494,-0.99801 -0.56185,-1.31133 -0.48586,-0.42651 -0.63971,-0.68844 -0.75399,-1.2837 -0.13245,-0.68987 -0.35293,-0.79019 -1.16611,-0.53058 -1.28337,0.40972 -1.94926,0.0251 -3.37321,-1.94813 -0.56788,-0.78696 -1.24869,-1.67268 -1.5129,-1.96828 -0.4579,-0.5123 -1.21218,-1.83128 -1.21239,-2.12009 -6e-5,-0.075 -0.23111,-0.35971 -0.51346,-0.63297 -0.28235,-0.27327 -0.51336,-0.57945 -0.51336,-0.68043 0,-0.10093 -0.20214,-0.45956 -0.44919,-0.7969 -0.29341,-0.40062 -0.44919,-0.75298 -0.44919,-1.01602 0,-0.51802 -0.23229,-0.99324 -0.52867,-1.08158 -0.33495,-0.0999 -1.56358,-0.9781 -2.67983,-1.91562 -1.333757,-1.12018 -2.805253,-2.10502 -4.236679,-2.83552 -1.805638,-0.92148 -2.105434,-1.25575 -1.474459,-1.64407 0.696581,-0.42868 0.429752,-0.53655 -1.251316,-0.50589 -1.565004,0.0285 -1.577428,0.0266 -2.727226,-0.43245 -1.844427,-0.73639 -2.600341,-0.92693 -4.171052,-1.05144 -2.835827,-0.2248 -3.160519,-0.29754 -4.523426,-1.01342 -0.687913,-0.36134 -1.552569,-0.74969 -1.921455,-0.86302 -0.831149,-0.25534 -1.04588,-0.47108 -2.003481,-2.0129 -1.103399,-1.77656 -0.947568,-1.74227 -3.597111,-0.79199 l -1.021434,0.36636 -0.04397,1.72328 c -0.05193,2.03459 -0.148561,2.26396 -0.79806,1.89401 -0.849398,-0.48383 -2.733338,-0.65091 -3.292158,-0.29197 -0.174526,0.11213 -0.857182,0.68087 -1.517013,1.26393 -1.622041,1.43332 -2.456295,1.8201 -4.068653,1.88633 -2.012929,0.0827 -2.182224,-0.79594 -0.303533,-1.57532 1.221661,-0.50681 1.167429,-0.67985 -0.267596,-0.85383 -0.391905,-0.0475 -0.250932,-0.53496 0.460359,-1.59179 0.985551,-1.46431 1.33366,-2.19175 1.335148,-2.79009 0.0015,-0.61688 0.19771,-0.81801 1.219897,-1.25067 1.085596,-0.45951 1.555978,-0.53876 1.805671,-0.30425 0.185731,0.17445 1.210909,0.28039 1.210909,0.12512 0,-0.35209 -0.569105,-1.01836 -0.978149,-1.14517 -2.178357,-0.67523 -4.655434,1.14844 -7.264509,5.34827 -0.383294,0.617 -0.913803,0.98178 -1.703698,1.17151 -1.392652,0.33449 -2.39366,0.90385 -2.627517,1.49446 -0.154123,0.38925 -0.01389,0.55795 0.715544,0.86094 0.780705,0.32429 0.950669,0.71829 0.742731,1.72174 -0.161944,0.7815 -2.622433,2.55041 -5.294668,3.80646 -0.661083,0.31074 -1.982664,1.00154 -2.93685,1.53513 -2.348112,1.31307 -2.814105,1.49691 -4.819407,1.90127 -2.660401,0.53646 -3.603034,0.98623 -3.060989,1.46054 0.32131,0.28114 0.316292,0.25852 0.138617,0.62478 -0.235553,0.48556 -0.609267,0.6 -2.295196,0.70283 -2.459478,0.15 -2.824282,0.20112 -4.130518,0.57876 -2.014855,0.58252 -3.726334,0.60014 -4.379352,0.0451 -0.215288,-0.18299 -0.265581,-0.16383 -0.772114,0.29411 -0.708367,0.64041 -0.976801,0.75894 -1.720533,0.75976 -0.822938,9e-4 -1.528666,0.19613 -2.155662,0.59638 -0.775079,0.49476 -0.998751,0.50605 -2.340947,0.11796 -1.472117,-0.42562 -1.624955,-0.42889 -2.281766,-0.049 -0.67101,0.38817 -0.831822,0.37609 -1.322396,-0.0993 -0.683908,-0.66274 -0.369328,-1.28358 0.875024,-1.7269 0.568156,-0.20242 0.767082,-0.20936 3.976723,-0.13856 0.918709,0.0203 2.542506,-0.57316 3.208681,-1.17261 0.39626,-0.35658 1.687947,-0.82339 2.959648,-1.06963 0.972383,-0.18828 1.376088,-0.15623 2.264919,0.17975 0.487825,0.18441 0.854526,0.0418 1.898128,-0.73858 0.728051,-0.54436 1.664423,-0.86419 3.336843,-1.13974 1.777364,-0.29283 2.147166,-0.45443 2.470558,-1.07962 0.276371,-0.53428 0.866137,-0.9973 1.894687,-1.48749 0.842872,-0.4017 1.186376,-0.82932 2.246584,-2.79665 0.570706,-1.05901 1.263503,-2.15206 1.594362,-2.51549 0.321807,-0.35347 0.585105,-0.69249 0.585105,-0.75337 0,-0.19012 -0.825027,-0.12139 -1.616245,0.13452 -1.107971,0.35846 -1.233993,0.31141 -1.464362,-0.54661 -0.274786,-1.02345 -0.718538,-1.04969 -1.066792,-0.063 -0.49161,1.39274 -1.146414,1.31501 -1.499565,-0.17799 -0.207022,-0.87523 -0.432055,-1.14514 -0.954726,-1.14514 -0.354696,0 -0.510845,-0.0894 -0.842036,-0.48218 -0.495954,-0.58813 -1.050124,-0.62928 -3.198655,-0.23749 -1.479884,0.26986 -1.68131,0.22371 -1.437415,-0.32932 0.08227,-0.18653 0.201752,-0.90342 0.265535,-1.5931 0.09064,-0.98013 0.17428,-1.3221 0.383014,-1.56609 0.702314,-0.82087 0.685436,-0.75464 0.58646,-2.30184 l -0.09267,-1.44879 -0.404238,0.23465 c -1.086986,0.63098 -4.480189,0.30063 -4.641729,-0.45188 -0.217305,-1.0123 -0.518381,-1.88078 -0.956874,-2.7602 l -0.49442,-0.99159 0.757846,-1.2987 c 0.893938,-1.53191 0.917576,-1.63826 0.341576,-1.53677 -0.787734,0.13885 -0.919433,-0.16348 -0.969879,-2.22612 l -0.04345,-1.77638 0.940267,-0.65216 c 1.358232,-0.94206 2.975295,-2.2198 4.393456,-3.47154 1.70874,-1.50823 2.414947,-1.63524 3.088665,-0.55548 0.575433,0.92223 1.234603,0.95381 2.795609,0.13393 0.759669,-0.39903 0.839632,-0.41708 1.097083,-0.2477 0.368097,0.24216 1.768743,0.24949 2.372832,0.0119 0.57061,-0.22393 0.855265,-0.71442 1.312074,-2.26087 0.18419,-0.62355 0.487105,-1.54291 0.673144,-2.04305 0.186038,-0.50013 0.300439,-1.0019 0.254222,-1.11501 -0.11958,-0.29269 -1.559976,-0.2748 -2.851396,0.0354 -1.292671,0.31052 -1.31113,0.30929 -2.058595,-0.13587 -0.827253,-0.49274 -1.392358,-0.67606 -2.946669,-0.95589 -3.356423,-0.60428 -4.217941,-1.5755 -3.681375,-4.15015 0.293142,-1.40661 0.273169,-1.48028 -0.621323,-2.29186 -1.13402,-1.02889 -1.298632,-1.57993 -0.569532,-1.90648 0.578796,-0.25924 2.427191,-0.56374 3.445216,-0.56756 0.980563,-0.003 1.894861,-0.19147 2.086632,-0.4286 0.438117,-0.54172 3.344417,-0.4738 3.986985,0.0932 0.389947,0.34408 0.374504,0.48217 -0.152987,1.36809 -0.508719,0.85439 -0.53314,0.80284 0.639988,1.3513 1.227175,0.57376 2.716124,1.01147 3.301193,0.97049 0.832949,-0.0584 0.850924,-0.23606 0.172012,-1.70049 -0.329387,-0.7105 -0.676661,-1.67519 -0.771718,-2.14375 -0.178991,-0.8823 -0.44337,-1.27168 -1.118386,-1.64716 -0.487917,-0.27141 -0.620551,-0.63567 -0.620551,-1.70424 0,-1.42836 -0.380791,-2.31047 -2.020181,-4.6798 -1.139991,-1.64756 -1.160884,-2.09619 -0.128897,-2.76803 0.57921,-0.37709 0.787229,-0.39182 3.122161,-0.2212 1.841025,0.13453 2.404596,-0.0538 3.518824,-1.17588 2.690081,-2.70911 3.337503,-3.13864 4.785668,-3.17507 0.732519,-0.0184 1.045237,-0.10138 1.963381,-0.52083 1.207959,-0.55184 2.157854,-0.72189 4.067725,-0.72819 1.437533,-0.004 1.828939,-0.1634 2.627985,-1.06521 l 0.641806,-0.72434 1.108372,0.61407 c 1.29572,0.71787 2.220129,1.50417 2.327605,1.97985 0.04188,0.18538 0.101544,0.45548 0.13257,0.60023 0.07915,0.36921 0.524703,0.47496 0.846978,0.20103 0.327262,-0.27816 1.688601,-0.29627 1.976066,-0.0263 0.102291,0.096 0.297337,0.55185 0.433435,1.01284 0.399571,1.35341 0.832548,1.57018 3.473025,1.73872 1.813372,0.11571 2.017669,0.17089 2.854002,0.7705 1.478157,1.05974 2.46786,1.47656 3.915206,1.6489 0.52651,0.0627 1.31026,0.26307 1.743807,0.44581 0.880775,0.37125 1.497854,0.39741 2.379941,0.10093 0.994832,-0.33444 1.388924,-0.25857 3.246287,0.62486 2.844158,1.35282 2.551723,-1.31511 2.685492,24.5 0.109532,21.13837 0.148665,22.93708 0.503642,23.1479 0.433446,0.25742 1.716415,0.17744 2.269808,-0.14154 0.750902,-0.43279 1.711952,-0.28048 2.008562,0.31832 0.302616,0.61094 0.721706,1.08959 2.571417,2.93695 0.855848,0.85476 1.522437,1.62595 1.562907,1.80812 0.1731,0.77923 0.56662,0.90265 1.5768,0.49449 0.84466,-0.34129 1.06233,-0.58909 1.18688,-1.35119 0.12208,-0.747 0.85357,-1.48137 2.07264,-2.08085 0.86427,-0.42502 0.81069,-0.45524 2.02149,1.14051 0.48007,0.63271 0.99083,1.21678 1.13502,1.29796 0.14419,0.0812 0.48991,0.46087 0.76826,0.84378 0.57801,0.79515 0.98911,1.17592 1.39396,1.29109 0.46343,0.13184 1.45173,1.26483 2.53328,2.90415 0.56005,0.84888 1.5436,2.1995 2.18567,3.00138 0.64206,0.80187 1.3772,1.80995 1.63362,2.24015 0.70015,1.17465 1.67881,1.80592 3.3762,2.17783 2.11335,0.46303 2.80334,0.98521 3.42389,2.59107 0.56697,1.46723 0.22931,3.58084 -0.84072,5.26268 -0.50903,0.80008 -0.68565,0.79592 -1.18815,-0.0279 -0.66886,-1.09665 -1.26235,-1.63318 -2.42515,-2.19241 -1.27061,-0.61109 -1.27849,-0.60754 -1.01543,0.45698 0.11299,0.45726 0.2152,1.23819 0.22712,1.73543 l 0.0217,0.90406 -0.77004,-0.0388 c -0.71716,-0.0361 -0.79593,-0.0134 -1.14699,0.33149 -0.47179,0.46354 -0.52782,0.46162 -1.02667,-0.0352 z m 0.97472,-0.92043 c 0.31949,-0.40586 0.56025,-0.4487 0.97787,-0.17397 0.2798,0.18406 0.28523,0.1789 0.28506,-0.27122 -1.5e-4,-0.40669 -0.20466,-1.64874 -0.45762,-2.77929 -0.0843,-0.37664 -0.072,-0.39175 0.31754,-0.39175 0.49392,0 1.26022,0.28863 1.6281,0.61324 0.14966,0.13198 0.49697,0.27272 0.77179,0.3126 0.79909,0.11601 1.12954,0.33856 1.51919,1.02347 0.74142,1.30325 0.80885,1.31266 1.36412,0.1903 0.56773,-1.14757 0.64252,-2.17522 0.26134,-3.591 -0.43517,-1.61627 -0.6035,-1.76229 -2.64817,-2.29723 -2.43372,-0.63673 -3.05666,-1.0477 -4.27579,-2.82088 -0.45583,-0.66297 -1.1015,-1.53088 -1.43481,-1.92866 -0.33332,-0.39779 -1.0565,-1.37417 -1.60707,-2.16974 -1.51246,-2.18552 -2.35675,-3.18104 -3.17041,-3.73833 -0.40559,-0.27779 -1.02532,-0.86679 -1.37717,-1.30887 -0.35185,-0.44209 -1.0018,-1.19911 -1.44434,-1.68225 -0.44254,-0.48314 -0.92786,-1.03808 -1.07848,-1.23318 -0.27387,-0.35471 -0.27387,-0.35471 -0.76874,-0.11362 -0.86194,0.41991 -1.41164,0.97198 -1.59016,1.59701 -0.2875,1.00657 -0.5638,1.30551 -1.70057,1.8399 -1.37932,0.64843 -1.46071,0.62797 -2.06236,-0.5181 -0.402549,-0.76681 -0.794144,-1.23243 -2.140333,-2.5449 -0.906199,-0.88351 -1.830209,-1.88508 -2.053354,-2.22569 -0.426066,-0.65037 -0.5323,-0.69776 -1.105329,-0.49314 -0.729285,0.26043 -2.25888,0.36289 -3.064404,0.2053 l -0.77004,-0.15065 -0.0334,-5.53613 c -0.02796,-4.63558 -0.0611,-5.50051 -0.20372,-5.31733 -0.389858,0.50076 -1.081644,0.11706 -1.674135,-0.92857 -0.289966,-0.51172 -0.584964,-0.93196 -0.655551,-0.93385 -0.07059,-0.001 -1.943023,-1.08134 -4.160969,-2.3988 -3.756302,-2.23125 -4.059702,-2.38814 -4.427733,-2.28963 -0.759451,0.20328 -0.829264,0.63595 -0.295417,1.83084 0.197685,0.44246 0.223251,0.61234 0.108398,0.72023 -0.196169,0.18424 -0.107651,0.24008 -3.29315,-2.07771 l -2.661623,-1.9366 -1.041026,0.0918 c -5.878646,0.51859 -9.578639,-0.11198 -12.18542,-3.53167 -1.270587,-1.1258 -0.198021,-0.13124 -1.850769,-1.64194 -0.547332,-0.50027 -0.382831,-0.35632 -0.6131,-0.59762 -0.230269,-0.24128 -0.457359,-0.55318 -0.504641,-0.6931 -0.149308,-0.44184 -0.289681,-0.28375 -0.710673,0.80032 -0.888594,2.2882 -0.432645,3.20054 2.756172,5.51497 2.078952,1.5089 2.613039,2.07451 3.852377,4.07977 0.615635,0.99609 0.195635,0.94216 -1.01765,-0.13064 -1.123374,-0.99335 -1.916531,-1.41147 -2.442344,-1.28753 -0.510401,0.12034 -0.517864,0.27845 -0.03561,0.75442 0.62273,0.61463 1.773565,2.19791 1.689947,2.32499 -0.133033,0.20216 -0.458986,0.10138 -1.199545,-0.371 -1.51353,-0.96536 -2.181853,-1.21148 -3.289637,-1.21148 -1.69214,0 -2.038672,-0.23994 -3.45266,-2.39065 -0.807486,-1.22821 -1.263468,-1.58605 -2.021922,-1.58677 -0.985664,-9.2e-4 -0.950438,0.73177 0.105187,2.18785 0.380834,0.52529 0.692425,0.97596 0.692425,1.00146 0,0.0717 -2.314155,-0.87422 -2.66116,-1.08777 -0.37424,-0.23031 -0.597465,-0.0982 -0.797922,0.4723 -0.161207,0.45878 0.02405,1.2297 0.711075,2.95889 0.766384,1.92894 0.378613,1.91224 -2.85145,-0.12288 l -0.915044,-0.57653 -3.306928,0.79662 -3.306927,0.7966 -3.221752,1.79905 c -3.648409,2.0373 -3.712599,2.08144 -3.372277,2.31857 0.352552,0.24565 2.30666,0.3641 3.158167,0.19142 1.237075,-0.25086 1.455497,-0.23115 1.651427,0.14901 0.135915,0.26371 0.140364,0.37587 0.02035,0.51169 -0.121507,0.13752 -0.10574,0.24275 0.07524,0.50215 0.424584,0.60863 0.63157,2.46341 0.30317,2.71668 -0.150433,0.11602 -0.346676,0.21096 -0.436094,0.21096 -0.359486,0 -0.478753,0.36628 -0.475071,1.459 0.0045,1.31864 0.05999,1.39349 0.847717,1.14231 1.193323,-0.38053 2.741718,-0.0726 3.20947,0.63823 0.0467,0.0709 0.319915,0.18849 0.607133,0.26112 0.713244,0.1804 1.112228,0.61703 1.212492,1.32693 l 0.08164,0.57804 0.405563,-0.49942 c 0.746979,-0.91985 1.70229,-0.84624 2.052102,0.15809 0.168997,0.48521 0.227611,0.49291 1.787233,0.23515 1.792926,-0.29634 1.98984,0.30969 0.61015,1.87782 -0.289201,0.3287 -0.982766,1.43841 -1.541255,2.46602 -1.117902,2.05692 -1.38451,2.36115 -2.523331,2.87928 -0.800304,0.36411 -1.227831,0.76138 -1.843702,1.71323 -0.358696,0.55437 -0.358696,0.55437 -1.368446,0.62315 -1.642574,0.11183 -4.071687,0.99631 -5.084917,1.85142 -0.558743,0.47155 -0.810575,0.49432 -1.828476,0.16539 -1.382866,-0.44686 -2.453786,-0.25302 -4.228976,0.76552 -2.296761,1.31777 -1.909305,1.20759 -4.561869,1.29704 -2.742002,0.0924 -3.753083,0.30738 -3.829396,0.81392 -0.04084,0.27106 -0.01598,0.28127 0.513361,0.21063 1.567552,-0.20915 2.032339,-0.2134 2.906673,-0.0266 1.24619,0.26621 1.605485,0.24719 2.056013,-0.10885 0.570374,-0.45077 1.211224,-0.66133 2.012843,-0.66133 0.77575,0 1.138206,-0.13512 1.908412,-0.71151 0.582175,-0.43566 0.976418,-0.46785 1.562606,-0.12766 0.911024,0.52884 2.558964,0.40953 3.970454,-0.28744 0.770041,-0.38023 0.770041,-0.38023 2.951989,-0.34502 2.621162,0.0422 2.854525,-0.0284 2.395724,-0.72564 -0.153054,-0.23259 -0.278279,-0.51064 -0.278279,-0.6179 0,-0.59555 2.534203,-1.44739 5.463244,-1.83643 0.216595,-0.0288 0.736374,-0.26134 1.15506,-0.51685 0.418688,-0.25553 2.011543,-1.11706 3.53968,-1.91454 2.913792,-1.52063 4.152209,-2.24717 4.793634,-2.81232 0.211762,-0.18657 0.64491,-0.46816 0.962551,-0.62574 1.055961,-0.52389 1.010186,-1.21902 -0.12615,-1.91574 -0.764067,-0.46846 -0.890562,-0.77808 -0.581165,-1.42251 0.419942,-0.87467 1.578587,-1.64868 2.66258,-1.7787 1.072873,-0.1287 1.367961,-0.37285 2.151476,-1.78028 2.369429,-4.25621 7.064534,-6.43061 8.564735,-3.96652 0.592448,0.9731 0.39149,1.25435 -0.896252,1.25435 -2.086387,0 -2.981759,0.37082 -2.987423,1.23728 -0.0028,0.43522 -0.125478,0.71339 -0.655642,1.48728 -0.35868,0.52356 -0.837281,1.2692 -1.063558,1.65696 l -0.411412,0.70501 0.553695,-0.0893 c 0.916973,-0.14781 0.935853,-0.14288 0.977048,0.25266 0.04944,0.47462 -0.309271,0.90367 -1.205898,1.44239 -0.83568,0.50209 -0.871548,0.66159 -0.147919,0.6578 1.142516,-0.006 3.047835,-1.0338 4.137827,-2.23213 0.771207,-0.84784 1.747071,-1.3251 2.479751,-1.21274 2.501914,0.38368 2.543346,0.36467 2.617482,-1.20098 0.07476,-1.57858 0.201201,-1.76677 1.555294,-2.31462 2.2333,-0.90358 3.036327,-0.70187 4.066834,1.02154 0.602763,1.00807 1.104092,1.56458 1.49173,1.65596 0.186494,0.044 0.922977,0.40458 1.636629,0.80135 1.576718,0.87662 2.054171,1.01049 4.469731,1.25327 2.107096,0.21177 3.280239,0.46192 4.756763,1.0143 1.471243,0.55039 1.910065,0.61924 2.695345,0.42289 1.580479,-0.39521 2.099503,-0.14379 1.792866,0.86868 -0.24474,0.80804 -0.271265,0.7793 1.568205,1.69976 1.364752,0.68292 2.296499,1.31016 3.545906,2.38707 0.50574,0.43592 1.48267,1.1702 2.17094,1.63174 1.20544,0.80833 1.68854,1.35414 1.47961,1.67166 -0.12502,0.18998 0.31609,1.03734 1.134,2.17838 0.40218,0.56108 0.76597,1.15676 0.80842,1.32375 0.1357,0.53383 0.42689,0.96939 1.12477,1.68238 0.37449,0.3826 0.83121,0.97672 1.01492,1.32026 1.13385,2.12026 2.30577,2.93942 3.19728,2.23485 0.64737,-0.51163 1.61876,-0.0381 1.89447,0.92369 0.0701,0.2446 0.3859,0.75726 0.70171,1.13925 0.31581,0.38199 0.60149,0.86249 0.63485,1.06779 0.0333,0.20528 0.0975,0.64447 0.14268,0.97594 0.10723,0.78793 0.31807,1.24462 0.82488,1.78677 0.50132,0.53626 0.5595,0.54143 0.92143,0.0817 z m -83.515971,-35.19946 0.681584,-1.32738 3.514638,-2.29222 c 3.514638,-2.29222 3.514638,-2.29222 4.092169,-2.20869 0.317641,0.046 0.695928,0.0881 0.840637,0.0938 0.179718,0.007 2.537571,-2.02449 7.43958,-6.40986 3.947061,-3.53106 7.21804,-6.40598 7.26884,-6.38869 0.0508,0.0173 2.223114,1.85558 4.827359,4.0851 l 4.734992,4.05365 1.850469,0.0775 c 1.017759,0.0427 2.287904,0.10824 2.822547,0.14587 l 0.972077,0.0682 1.017195,-1.07928 c 0.58665,-0.62246 1.252692,-1.49579 1.573578,-2.06333 0.51903,-0.91797 0.608047,-1.00852 1.325931,-1.3489 l 0.769547,-0.36485 1.946741,1.15066 c 1.070708,0.63286 2.750247,1.62788 3.732309,2.21116 l 1.78557,1.06051 2.834674,4.93656 c 1.62385,2.82792 2.919461,4.95164 3.033172,4.97184 0.119162,0.0212 0.311688,-0.15388 0.481717,-0.43803 0.28322,-0.47329 0.28322,-0.47329 0.250691,-17.55421 l -0.03252,-17.08091 -2.045685,-1.12381 -2.045686,-1.12379 -0.870848,0.41191 c -1.085923,0.51363 -1.383074,0.51338 -2.744794,-0.003 -0.60158,-0.22784 -1.423725,-0.47566 -1.826988,-0.5507 -1.660643,-0.30907 -2.618416,-0.67369 -3.835393,-1.46011 -0.777841,-0.50264 -1.378069,-0.6753 -3.073675,-0.88417 -2.849022,-0.35093 -3.642153,-0.81068 -3.642153,-2.11125 0,-0.80844 -0.829939,-1.07162 -1.732592,-0.54945 -0.282348,0.16333 -0.613607,0.29866 -0.736133,0.30073 -0.277968,0.004 -0.833076,-0.76587 -0.951138,-1.32031 -0.107352,-0.50413 -1.034656,-1.38029 -1.96334,-1.85502 -0.726658,-0.37147 -0.963682,-0.30882 -1.52379,0.40274 -0.473754,0.60184 -0.890161,0.72566 -2.685083,0.79842 -2.115712,0.0857 -2.67904,0.19594 -4.063201,0.79473 -0.938151,0.40585 -1.294073,0.4975 -1.992971,0.51316 -1.130382,0.0254 -1.546817,0.30175 -3.809677,2.52879 l -1.768558,1.74055 -2.643956,0.0387 c -3.669437,0.0536 -3.792891,0.13692 -2.710376,1.82997 1.47179,2.30188 2.351197,4.27287 2.40079,5.38084 0.01929,0.43093 0.03889,0.85199 0.04358,0.93568 0.0046,0.0838 0.318864,0.33864 0.698187,0.56654 0.799129,0.48015 0.830009,0.5365 0.983445,1.79495 0.09798,0.8036 0.222674,1.13696 0.825397,2.20654 0.873723,1.55048 0.874761,1.50582 -0.04402,1.8931 -1.080866,0.45559 -1.947774,0.34912 -3.841529,-0.47178 -1.902349,-0.82463 -2.17966,-1.20323 -1.628962,-2.22394 0.576442,-1.06843 0.276189,-1.38062 -1.257838,-1.30786 -0.933975,0.0444 -1.08799,0.10213 -1.89663,0.71265 -0.290302,0.21917 -0.534826,0.25394 -1.989272,0.28293 -1.769426,0.0352 -3.03287,0.31097 -3.105601,0.6777 -0.02014,0.10153 0.340587,0.57797 0.801608,1.05874 0.911907,0.95095 0.929185,1.00218 0.637782,1.89074 -0.59077,1.80138 -0.505536,2.29191 0.556685,3.20379 0.889591,0.76369 1.342942,0.95487 2.264285,0.95487 1.017202,0 1.943068,0.21452 2.926972,0.67815 0.965735,0.45509 1.30935,0.48519 2.602138,0.22801 1.664329,-0.33112 2.807334,-0.19485 3.015533,0.35952 0.148217,0.39466 -0.905972,4.08859 -1.44752,5.07218 -0.510445,0.92711 -1.704728,1.58906 -2.620058,1.45221 -1.553835,-0.23231 -1.50477,-0.23528 -2.43344,0.14752 -1.183706,0.48796 -1.791122,0.57331 -2.3946,0.33649 -0.505043,-0.19821 -0.535675,-0.24228 -0.661123,-0.95124 -0.05707,-0.32247 -0.144664,-0.45203 -0.305651,-0.45203 -0.397087,0 -1.5776,0.6253 -1.796782,0.95173 -0.247138,0.36806 -1.20409,1.20757 -2.650333,2.32508 -2.148833,1.66039 -2.626507,2.32776 -2.660189,3.71665 -0.01674,0.68998 0.125597,0.88438 0.875594,1.19598 0.918295,0.38153 0.862827,0.94555 -0.254294,2.58577 -0.565192,0.82985 -0.564593,0.75881 -0.0169,2.00778 0.245763,0.56044 0.4479,1.11391 0.449192,1.22994 0.0045,0.39917 0.146321,0.20743 0.826103,-1.11645 z m 9.424229,-3.02297 3.407285,-0.82398 0.584004,0.34193 c 0.321204,0.18805 1.098657,0.64741 1.727674,1.02078 0.629019,0.37337 1.162263,0.6614 1.184987,0.64005 0.02272,-0.0213 -0.126867,-0.44901 -0.332413,-0.95039 -0.892758,-2.17757 -0.879467,-3.20814 0.04873,-3.77936 0.288412,-0.17749 0.354459,-0.16647 1.08822,0.18141 0.429645,0.2037 0.781171,0.34786 0.781171,0.32034 0,-0.0275 -0.143813,-0.34021 -0.319596,-0.69484 -0.414273,-0.83584 -0.404306,-1.12859 0.05305,-1.55815 0.953055,-0.89514 2.152922,-0.32377 3.436728,1.63658 1.193554,1.82252 1.44293,1.98892 2.980634,1.98892 0.970711,0 1.09311,0.0311 2.12796,0.53945 l 1.098007,0.53945 -0.381731,-0.52112 c -0.209952,-0.28661 -0.529383,-0.61198 -0.709845,-0.72303 -0.755111,-0.46471 -0.144455,-1.28124 0.958191,-1.28124 0.491175,0 0.741704,0.0851 1.286193,0.43689 l 0.676202,0.43687 -0.307129,-0.40674 c -0.496064,-0.65695 -1.246819,-1.3122 -2.749207,-2.39946 -3.37285,-2.44088 -3.875343,-3.61907 -2.69744,-6.32464 0.600016,-1.37818 0.762882,-1.54997 1.101613,-1.16191 0.136616,0.15651 0.200445,0.36814 0.2484,0.4367 0.801466,1.14596 1.358178,1.62608 3.198367,3.46383 3.024646,3.02062 5.845334,3.47774 11.772348,2.95516 l 1.045817,-0.0923 1.520985,1.10385 c 0.836542,0.60711 1.994822,1.44971 2.573954,1.87245 0.975684,0.71219 1.043389,0.7428 0.92245,0.41695 -0.359487,-0.96855 0.05024,-1.71978 1.053977,-1.93239 0.417883,-0.0885 0.640603,0.0239 3.96861,2.00281 1.939234,1.15313 3.690554,2.17954 3.891822,2.28094 0.406682,0.20486 0.643823,0.66313 -2.540026,-4.90858 l -1.275706,-2.23249 -3.493006,-2.07241 c -1.921154,-1.13983 -3.554971,-2.07242 -3.630706,-2.07242 -0.648276,0 -1.140535,0.39762 -1.684863,1.36092 -0.333312,0.58987 -1.003194,1.4635 -1.658314,2.16271 l -1.099109,1.17308 -1.347572,-0.0687 c -0.741164,-0.0378 -2.109374,-0.10451 -3.040469,-0.14841 l -1.692899,-0.0799 -4.696862,-4.01861 -4.696862,-4.01861 -1.952345,1.74557 c -1.073789,0.96006 -4.291341,3.84186 -7.150117,6.40399 -4.894345,4.38649 -5.220249,4.65445 -5.582793,4.59027 -1.334575,-0.23633 -1.003458,-0.37787 -4.620243,1.9749 -3.537829,2.30143 -3.525245,2.29018 -4.224585,3.77542 l -0.316735,0.67267 3.027954,-1.69068 3.027953,-1.69068 z"
         id="path388-3"
         sodipodi:nodetypes="cssssssssssscsssssssssscsssssssscssscsssssssssssssssscssssssscsssssscsssssssssscssscscscssssscsssscsssscssssssssssssccscscsssscscssscsssssssssssssssssssscssscssccsssssccssssssssssssssssssscssscssssscsssssssssssscssssssssscccssssssssssssscssssssssssscsscssscsssscssssssssssssscssssssssscsssssssssssssssssssssccsccsssccccssscsscsssscccsccsssscssscscsccsscsssssscscsssssssssscssssssssssccccsssssssssssscsssscssssssccssssssscsssscsccccsscsscccc" />
      <path
         style="display:inline;fill:url(#linearGradient413);stroke:none;stroke-width:0.103414"
         d="m 64.766229,127.0907 c -0.736047,0.25697 -1.069104,1.21664 -1.936393,1.24361 -1.879692,0.24846 -3.908228,0.13032 -5.67679,1.00382 -1.135886,0.62159 -2.579842,0.24964 -3.613128,1.09819 -1.383088,1.07745 -2.5542,2.39645 -3.826936,3.59668 -1.853039,0.0999 -3.733877,0.003 -5.568415,0.29691 -0.608489,0.13389 -0.50635,0.85993 -0.224606,1.25249 1.205868,2.15985 2.72683,4.30792 2.758457,6.8827 0.47112,0.58084 1.516604,0.81044 1.541109,1.71833 0.108044,1.30347 0.744797,2.44762 1.313224,3.59418 0.106073,0.26753 0.414139,0.68565 -0.04296,0.81519 -1.202585,0.61699 -2.63015,0.31037 -3.826936,-0.25631 -0.641289,-0.34248 -1.487367,-0.52842 -1.919224,-1.14281 -0.294145,-0.76115 0.808403,-1.52872 0.230258,-2.22724 -0.679117,-0.41601 -1.566691,-0.23385 -2.312682,-0.1222 -0.779929,0.26089 -1.375574,0.98695 -2.265337,0.83305 -1.267139,0.13635 -2.647291,0.0123 -3.817728,0.58425 -0.419993,0.40711 0.290574,0.85522 0.478492,1.19391 0.339468,0.50893 1.116248,0.97508 0.845292,1.67685 -0.169789,0.95439 -0.852439,2.1554 -0.04262,3.01376 0.712574,0.87728 1.693378,1.62271 2.872577,1.62817 1.234378,0.006 2.418937,0.42901 3.56315,0.90023 1.572835,0.51094 3.224366,-0.6265 4.762307,0.0824 0.313944,0.48625 -0.07863,1.13896 -0.132233,1.66004 -0.435866,1.38803 -0.641498,2.97086 -1.646613,4.08915 -0.577497,0.62174 -1.430161,0.86103 -2.24733,0.71469 -0.962877,-0.15509 -1.914784,0.0413 -2.804622,0.41094 -0.722857,0.21369 -1.905563,0.52973 -2.250269,-0.38719 -0.035,-0.44185 -0.372593,-0.98474 -0.88791,-0.76026 -1.468718,0.54241 -2.394713,1.91354 -3.645071,2.79377 -1.090815,0.98648 -2.532026,1.80006 -3.063125,3.24607 -0.157571,0.69171 -0.36468,1.73297 0.444964,2.10687 0.389006,0.2159 1.047701,0.42315 0.854177,1.00283 -0.192196,0.94967 -1.078146,1.62004 -1.22481,2.5692 0.256387,0.8664 0.554932,1.76872 1.007074,2.53587 0.505386,-0.18944 0.632231,-0.92297 0.939704,-1.35821 0.328443,-0.59642 0.485606,-1.3382 1.197051,-1.59308 2.076921,-1.28749 4.050234,-2.75623 6.20264,-3.91505 0.73169,-0.324 1.679002,0.27486 2.221191,-0.51248 4.761113,-4.00355 9.304199,-8.25843 14.035459,-12.29575 3.260034,2.62152 6.363774,5.45342 9.60299,8.08704 1.881746,0.0804 3.79045,0.24379 5.662739,0.2388 1.310609,-1.16533 2.286547,-2.65834 3.309865,-4.06424 0.406151,-0.31717 0.965654,-0.61823 1.427341,-0.67308 2.427181,1.43578 4.854083,2.87204 7.281075,4.30813 1.904516,3.31246 3.762485,6.65433 5.801905,9.88677 0.395915,0.21415 0.768962,-0.41058 0.866704,-0.76833 0.256489,-2.00015 0.08666,-4.03266 0.157744,-6.04509 0.01805,-9.06735 0.08079,-18.13613 -0.03607,-27.20267 -0.03168,-0.62945 0.09236,-1.42831 -0.707036,-1.5934 -1.176816,-0.61019 -2.319521,-1.34446 -3.51744,-1.87766 -0.900176,0.32591 -1.814735,1.00637 -2.825574,0.6048 -1.479815,-0.49194 -3.004106,-0.83327 -4.490644,-1.29631 -1.396057,-0.4747 -2.547429,-1.54854 -4.061564,-1.68779 -1.342284,-0.30126 -2.848764,-0.23636 -4.03909,-1.0026 -0.659888,-0.52182 -0.176107,-1.82738 -1.17351,-2.03597 -0.722012,-0.16715 -1.326404,0.54319 -2.013956,0.42517 -0.650848,-0.7018 -0.845174,-1.76491 -1.665737,-2.34379 -0.550089,-0.40221 -1.16948,-0.87784 -1.871151,-0.93336 z"
         id="path399-8" />
      <path
         style="display:inline;fill:url(#linearGradient414);stroke:none;stroke-width:0.0450447"
         d="m 56.931849,155.32548 c -4.452597,3.92613 -8.829567,7.93796 -13.301296,11.84253 -0.368662,0.28076 -0.70047,0.65755 -1.145758,0.811 -0.480771,-7.9e-4 -0.970099,-0.22356 -1.443194,-0.0149 -0.853146,0.31513 -1.576003,0.89465 -2.349062,1.36066 -1.391941,0.93008 -2.839784,1.78513 -4.159622,2.818 -0.662684,0.51594 -0.962288,1.32995 -1.337112,2.05204 -0.129847,0.16756 -0.105018,0.51031 0.169884,0.48054 1.823007,-0.98109 3.622407,-2.01814 5.436696,-3.02007 0.561344,-0.39591 1.262706,-0.43418 1.906085,-0.62055 1.789152,-0.41519 3.563648,-0.89966 5.36618,-1.25343 1.133919,0.60372 2.221179,1.32993 3.372112,1.91889 0.291988,0.0958 0.332136,-0.26623 0.207627,-0.44772 -0.358067,-1.08387 -0.960092,-2.14178 -0.878547,-3.31457 0.02655,-0.46312 0.367816,-0.94147 0.832888,-1.03401 0.516735,0.12391 0.968151,0.45722 1.482548,0.57282 0.295314,0.008 0.203289,-0.35588 0.08557,-0.50824 -0.169691,-0.46489 -0.572583,-0.94206 -0.412002,-1.46308 0.244907,-0.38711 0.674116,-0.68977 1.151545,-0.62984 0.714368,0.0278 1.221393,0.62932 1.660704,1.12643 0.725425,0.82518 1.16284,1.90767 2.07414,2.5654 0.610567,0.3939 1.391131,0.25425 2.065904,0.32992 0.959756,0.006 1.739803,0.61534 2.595177,0.96432 0.260681,0.0608 0.335301,-0.28566 0.167862,-0.4339 -0.316125,-0.47374 -0.750637,-0.84511 -1.153043,-1.23873 -0.162623,-0.31417 0.242244,-0.56394 0.490655,-0.66248 0.363811,-0.0992 0.769018,-0.0925 1.136763,-0.0162 0.408913,0.15674 0.769397,0.44306 1.16536,0.64101 0.284293,0.0506 0.305404,-0.32565 0.117537,-0.45634 -1.521361,-1.91545 -3.903357,-2.91543 -5.427104,-4.80871 -0.541058,-0.64791 -0.704819,-1.53752 -0.528555,-2.35197 0.186752,-0.88682 0.575968,-1.7412 1.019913,-2.53565 0.04521,-0.12511 0.192413,-0.22639 0.266045,-0.0606 0.222228,0.29343 0.496929,0.63925 0.754722,0.91208 0.358702,0.44087 0.607184,0.79144 1.039306,1.16354 0.232869,0.12649 0.83194,0.86891 2.249207,2.13283 0.291442,0.26329 0.87146,0.94987 1.339901,1.11595 0.590159,0.56647 3.358136,1.63721 1.101312,0.48588 1.611383,1.30695 4.835248,1.17775 2.736105,1.09114 1.745307,0.112 1.154742,0.19282 2.845374,0.19201 1.436597,0.0111 2.868891,-0.12184 4.298349,-0.24899 1.619786,1.15974 3.207154,2.3666 4.851021,3.49167 0.187338,0.15936 0.46636,-0.0436 0.375848,-0.27053 -0.177528,-0.51411 -0.17869,-1.21331 0.340827,-1.52818 0.352023,-0.23462 0.818943,-0.34919 1.196648,-0.10064 1.741976,0.90837 3.400638,1.96495 5.10211,2.94544 0.732658,0.41309 1.437402,0.88349 2.195786,1.24706 0.248896,0.0731 0.349486,-0.24204 0.212821,-0.40857 -1.186373,-2.21648 -2.474413,-4.37745 -3.707361,-6.56832 -0.15114,-0.29536 -0.309611,-0.5976 -0.643363,-0.71508 -2.274252,-1.33146 -4.520169,-2.71335 -6.831026,-3.98114 -0.672399,-0.0438 -1.25812,0.45307 -1.592726,1.00047 -0.595522,0.92698 -1.226793,1.83396 -1.987629,2.63499 -0.316706,0.35087 -0.639847,0.69586 -0.960021,1.04357 -1.992307,-0.0771 -3.981702,-0.20648 -5.974503,-0.27036 -3.11486,-2.65975 -6.215965,-5.33584 -9.344679,-7.97917 -0.08403,-0.0295 -0.154099,-0.054 -0.233933,0.002 z"
         id="path400-7"
         sodipodi:nodetypes="cccccccccccccccccccccccccccccccccccccccccccccccccccccccccc" />
      <path
         style="display:inline;fill:url(#linearGradient415);stroke:none;stroke-width:0.103414"
         d="m 57.433103,158.43878 c -0.496272,0.30124 -0.558855,1.02044 -0.787525,1.52112 -0.299818,0.80521 -0.419706,1.7468 0.123142,2.48267 1.041846,1.65622 2.867315,2.56723 4.294253,3.84368 1.100596,0.89475 1.923162,2.09193 2.578222,3.32875 -1.151964,-0.59978 -1.981518,-1.91319 -3.353292,-2.02991 -0.344268,-0.0517 -0.902606,0.2274 -0.586552,0.61866 0.592529,0.82477 1.401726,1.55428 1.805709,2.48276 -1.32412,-0.44765 -2.409721,-1.5662 -3.876404,-1.61242 -0.902372,-0.1116 -2.01339,0.0224 -2.602541,-0.82832 -0.947068,-0.99242 -1.441143,-2.49204 -2.75361,-3.08486 -0.520745,-0.24397 -1.535313,0.031 -1.351049,0.7439 0.280022,0.81918 0.856602,1.53289 1.297525,2.23552 -0.898197,-0.26187 -1.705703,-0.78905 -2.601312,-1.0301 -0.687537,0.055 -0.751459,0.98472 -0.629375,1.51082 0.190095,1.16585 0.884469,2.2174 0.963652,3.38682 -1.107826,-0.24357 -2.02875,-1.01136 -3.008685,-1.54938 -0.505481,-0.38433 -1.057553,-0.70202 -1.682194,-0.36454 -1.98904,0.50404 -4.01222,0.91714 -5.980346,1.47684 -2.168294,1.26239 -4.433066,2.37807 -6.525848,3.76068 -0.358794,0.38036 0.260175,0.73837 0.612,0.70572 1.291426,0.19969 2.594802,0.0102 3.880058,-0.0832 0.364387,0.0867 0.363111,0.51695 0.2547,0.795 0.221626,0.74026 0.599564,1.44902 0.559285,2.24643 0.06623,0.43789 -0.131549,0.90992 -0.609578,0.93417 -0.617251,0.51474 -0.331481,1.47579 -0.382662,2.17289 -0.188906,0.67746 0.362629,0.77524 0.87893,0.65161 1.060081,0.0203 2.442991,-0.33884 3.207051,0.63725 0.532597,0.36229 1.381445,0.39584 1.617266,1.11594 0.157878,0.29651 0.09586,1.25812 0.597407,0.80828 0.373228,-0.514 1.229238,-1.27309 1.787785,-0.59276 0.26552,0.34319 0.414364,0.93057 0.969711,0.8566 0.851144,0.0667 1.754733,-0.30839 2.565163,0.004 0.03172,0.62109 -0.569403,1.10188 -0.868521,1.60009 -1.107957,1.45131 -1.756281,3.21757 -2.962658,4.59204 -0.722771,0.66864 -1.786253,0.87217 -2.382163,1.70553 -0.444743,0.45428 -0.655471,1.25914 -1.412396,1.2212 -2.07973,0.22949 -4.135113,0.89806 -5.847209,2.11775 -1.034853,0.36534 -2.064595,-0.43392 -3.125455,-0.24238 -1.863712,0.18137 -3.24061,1.6783 -5.020039,2.09899 -1.806324,0.26458 -3.727951,0.0334 -5.509438,0.56574 -0.428833,0.061 -0.861004,0.92005 -0.22844,0.95336 1.436481,-0.27683 2.92172,-0.16935 4.366023,0.10099 0.932883,9e-5 1.577458,-0.92463 2.534257,-0.89316 0.936601,-0.0197 1.832202,-0.33854 2.566168,-0.92063 0.739468,-0.51573 1.496978,0.2842 2.267845,0.27995 1.255133,0.17693 2.482962,-0.26092 3.594252,-0.79218 1.610052,-0.2196 3.273182,0.0209 4.874815,-0.27469 0.448741,-0.41607 -0.283641,-0.9196 -0.220766,-1.36378 0.667212,-0.65218 1.676826,-0.80705 2.540686,-1.0914 1.398632,-0.41624 2.937225,-0.38973 4.193769,-1.21845 2.537908,-1.43882 5.206891,-2.65811 7.647003,-4.26281 0.66014,-0.60718 1.579274,-0.86761 2.127265,-1.58919 0.415937,-0.6835 -0.4666,-1.23246 -0.93119,-1.58062 -0.391713,-0.22372 -0.707289,-0.6632 -0.439454,-1.10512 0.557279,-1.15947 1.843688,-1.68115 3.039613,-1.88651 1.258317,-0.29643 1.616684,-1.70361 2.353253,-2.59012 1.246921,-1.83721 3.046423,-3.57001 5.284055,-3.99163 1.044679,-0.24065 2.414711,0.19289 2.701903,1.35105 0.139936,0.24131 0.04215,0.49609 -0.263589,0.47566 -1.164265,0.22673 -2.545394,-0.0669 -3.527395,0.73017 -0.464317,0.55555 -0.368251,1.38334 -0.842551,1.9389 -0.479151,0.85384 -1.114309,1.63179 -1.538604,2.50831 0.115518,0.50056 0.77723,0.0923 1.12059,0.12968 0.448776,-0.11377 0.26554,0.63642 0.07332,0.81034 -0.441445,0.50628 -1.153177,0.72146 -1.547983,1.2636 0.01667,0.54484 0.766608,0.3135 1.113116,0.26338 1.774512,-0.35677 3.060956,-1.69893 4.411469,-2.79097 0.711571,-0.66119 1.677699,-0.54504 2.561725,-0.44093 0.545756,-0.0217 1.489398,0.29398 1.711791,-0.42274 0.320625,-0.9438 -0.08276,-2.22529 0.850342,-2.87662 1.042786,-0.49389 2.273616,-1.03615 3.412066,-0.74208 1.094201,0.58045 1.412839,1.93531 2.32581,2.69241 1.345112,0.77072 2.710905,1.5654 4.190704,2.04425 2.370268,0.47635 4.822226,0.5025 7.107442,1.37714 0.97741,0.35665 2.00923,0.65711 3.054632,0.40898 0.433531,0.003 0.921626,-0.17514 1.333679,-0.0289 0.458985,0.52635 -0.434219,1.40778 0.308426,1.8146 1.633735,0.95474 3.364314,1.77275 4.786463,3.04908 1.15446,1.0058 2.53222,1.75104 3.60464,2.84554 0.26678,0.40619 0.0867,0.96198 0.43022,1.3565 0.65594,1.0828 1.40096,2.11528 1.94164,3.2624 0.8238,1.13721 1.7822,2.17694 2.47872,3.40601 0.50838,0.7353 1.27337,1.6556 2.26804,1.53445 0.49471,-0.24176 1.1235,-0.58678 1.64816,-0.19996 0.62811,0.73335 0.94231,1.68113 1.58172,2.41751 0.57823,0.98612 0.31835,2.30719 1.12746,3.19817 0.31224,0.31353 0.75575,1.14409 1.14592,0.47875 0.21994,-0.26977 0.54807,-0.66815 0.91206,-0.33474 0.65458,0.52809 0.6592,-0.33422 0.51041,-0.78712 -0.10329,-0.84831 -0.33461,-1.72806 -0.4177,-2.54637 1.12757,-0.12173 2.01377,0.78907 3.07638,1.00889 0.88959,0.23744 0.98729,1.42242 1.75945,1.81722 0.49887,-0.14519 0.63285,-0.80555 0.88044,-1.21289 0.64298,-1.42962 0.30829,-3.10593 -0.31287,-4.47873 -0.57063,-0.98646 -1.87666,-0.99712 -2.82814,-1.38106 -1.26625,-0.31752 -2.5335,-0.92467 -3.27166,-2.07065 -1.71336,-2.27011 -3.3717,-4.57445 -5.10433,-6.82892 -1.18141,-1.35808 -2.64983,-2.43948 -3.76539,-3.86305 -0.68083,-0.73366 -1.27524,-1.58136 -2.07162,-2.19073 -0.71467,0.0446 -1.30296,0.63541 -1.79723,1.1113 -0.50972,0.75334 -0.60541,1.86821 -1.57465,2.22846 -0.54014,0.24375 -1.15264,0.65936 -1.74471,0.57786 -0.67221,-0.94609 -1.29102,-1.93989 -2.136755,-2.75199 -1.070688,-1.09154 -2.083115,-2.2156 -3.098189,-3.35268 -0.528236,-0.31171 -1.147631,0.15419 -1.714011,0.12139 -0.857626,0.0429 -1.765727,0.11828 -2.596466,-0.0665 -0.230973,-2.7583 -0.165756,-5.54086 -0.207054,-8.31172 -0.05826,-0.75711 0.09282,-1.57218 -0.122376,-2.29774 -0.33073,-0.29369 -0.884378,0.0204 -1.162603,-0.41588 -0.704053,-0.71741 -1.052646,-1.80037 -2.079149,-2.16176 -2.414437,-1.38256 -4.786918,-2.84912 -7.245513,-4.14854 -0.631646,-0.35507 -1.572629,0.18986 -1.334691,0.94669 0.07592,0.51756 0.391487,1.02856 0.430829,1.51829 -1.507629,-0.75517 -2.786307,-1.90754 -4.178188,-2.85193 -0.614351,-0.35916 -1.200176,-0.80509 -1.809264,-1.17972 -2.145524,0.42188 -5.644184,0.50223 -8.020334,-0.0131 -4.680036,-1.86082 -1.544353,-0.56274 -6.770704,-4.81775 -0.995223,-0.81074 -0.496221,-0.62412 -1.335209,-1.67548 -0.04356,-0.0227 -0.09432,-0.031 -0.1428,-0.0236 z"
         id="path401-4"
         sodipodi:nodetypes="ccccccccccccccccccccccccccccccccccccccccccccccccccccccccccccccccccccccccccccccccccccccccccccccccccccccccccccccccccccccccc" />
      <path
         style="font-size:17.8437px;font-family:'DM Sans';-inkscape-font-specification:'DM Sans';text-align:center;letter-spacing:0.529167px;word-spacing:2.30016px;text-anchor:middle;fill:#1a7b8d;stroke:#000000;stroke-width:0.836418;stroke-linejoin:round;paint-order:stroke fill markers"
         d="m 93.331536,174.21402 4.264645,-12.49059 h 2.319681 l 4.193268,12.49059 h -1.58809 l -3.729331,-11.38428 h -0.07138 l -3.818552,11.38428 z m 2.105557,-3.90777 0.428249,-1.21337 h 5.656448 l 0.42825,1.21337 z m 10.093397,3.90777 v -12.49059 h 1.49887 v 12.49059 z m 6.54249,0.21412 q -1.05278,0 -1.76653,-0.37471 -0.71375,-0.37472 -1.07062,-0.99925 -0.33903,-0.62453 -0.33903,-1.35612 0,-0.91003 0.46394,-1.53456 0.48178,-0.62453 1.33827,-0.94572 0.87435,-0.33903 2.05203,-0.33903 h 2.39106 q 0,-0.87434 -0.26766,-1.44534 -0.26766,-0.57099 -0.76728,-0.83865 -0.49962,-0.2855 -1.19553,-0.2855 -0.87434,0 -1.51671,0.44609 -0.64238,0.4461 -0.78512,1.37397 h -1.53456 q 0.10706,-0.96356 0.62453,-1.62378 0.53531,-0.66022 1.35612,-0.99925 0.83865,-0.35687 1.85574,-0.35687 1.26691,0 2.08772,0.46394 0.83865,0.44609 1.23121,1.2669 0.41041,0.80297 0.41041,1.89143 v 5.44233 h -1.24906 l -0.14275,-1.51671 h -0.0714 q -0.24981,0.42824 -0.58884,0.74943 -0.32119,0.32119 -0.71375,0.53531 -0.39256,0.21413 -0.8565,0.32119 -0.44609,0.1249 -0.94571,0.1249 z m 0.26765,-1.2669 q 0.67806,0 1.19553,-0.24981 0.51747,-0.26766 0.87434,-0.71375 0.35688,-0.44609 0.53531,-0.99925 0.19629,-0.57099 0.19629,-1.15984 v 0 h -2.26615 q -0.87435,0 -1.40966,0.21413 -0.53531,0.19628 -0.76728,0.55315 -0.23196,0.35688 -0.23196,0.82081 0,0.46394 0.21412,0.82081 0.23197,0.33903 0.64237,0.53531 0.42825,0.17844 1.01709,0.17844 z m 9.59378,1.2669 q -1.05278,0 -1.89143,-0.35687 -0.83866,-0.37472 -1.35612,-1.03493 -0.49963,-0.67807 -0.62453,-1.58809 h 1.53456 q 0.10706,0.44609 0.35687,0.87434 0.26766,0.4104 0.74944,0.67806 0.49962,0.26765 1.24905,0.26765 0.64238,0 1.05278,-0.17843 0.41041,-0.19628 0.60669,-0.49963 0.21412,-0.32118 0.21412,-0.6959 0,-0.46394 -0.26765,-0.74944 -0.26766,-0.2855 -0.78512,-0.48178 -0.49963,-0.21412 -1.19553,-0.4104 -0.53531,-0.1606 -1.08847,-0.33903 -0.55315,-0.19628 -1.01709,-0.46394 -0.44609,-0.26765 -0.73159,-0.6959 -0.26766,-0.42825 -0.26766,-1.07062 0,-0.71375 0.39256,-1.28475 0.39257,-0.571 1.10631,-0.91003 0.7316,-0.33903 1.713,-0.33903 1.40965,0 2.30184,0.6959 0.91003,0.69591 1.05278,2.01634 h -1.48103 q -0.0714,-0.74943 -0.571,-1.14199 -0.48178,-0.41041 -1.32043,-0.41041 -0.82081,0 -1.26691,0.35687 -0.42825,0.35688 -0.42825,0.89219 0,0.35687 0.21413,0.58884 0.21412,0.23197 0.67806,0.41041 0.48178,0.16059 1.21337,0.39256 0.82081,0.24981 1.5524,0.55315 0.74944,0.30335 1.21337,0.80297 0.48178,0.48178 0.48178,1.32043 0.0179,0.82081 -0.4104,1.46319 -0.41041,0.62453 -1.17769,0.9814 -0.74943,0.35687 -1.80221,0.35687 z m 10.62869,-0.21412 -4.30033,-4.87133 3.87209,-3.97915 h 1.8379 l -4.42524,4.51446 v -1.07062 l 4.92486,5.40664 z m -5.54939,0 v -12.49059 h 1.49887 v 12.49059 z m 11.52091,0.21412 q -1.05278,0 -1.76653,-0.37471 -0.71375,-0.37472 -1.07062,-0.99925 -0.33903,-0.62453 -0.33903,-1.35612 0,-0.91003 0.46394,-1.53456 0.48178,-0.62453 1.33827,-0.94572 0.87434,-0.33903 2.05203,-0.33903 h 2.39105 q 0,-0.87434 -0.26765,-1.44534 -0.26766,-0.57099 -0.76728,-0.83865 -0.49962,-0.2855 -1.19553,-0.2855 -0.87434,0 -1.51671,0.44609 -0.64238,0.4461 -0.78513,1.37397 h -1.53455 q 0.10706,-0.96356 0.62453,-1.62378 0.53531,-0.66022 1.35612,-0.99925 0.83865,-0.35687 1.85574,-0.35687 1.2669,0 2.08771,0.46394 0.83866,0.44609 1.23122,1.2669 0.41041,0.80297 0.41041,1.89143 v 5.44233 h -1.24906 l -0.14275,-1.51671 h -0.0714 q -0.24981,0.42824 -0.58884,0.74943 -0.32119,0.32119 -0.71375,0.53531 -0.39256,0.21413 -0.8565,0.32119 -0.44609,0.1249 -0.94571,0.1249 z m 0.26765,-1.2669 q 0.67806,0 1.19553,-0.24981 0.51747,-0.26766 0.87434,-0.71375 0.35688,-0.44609 0.53531,-0.99925 0.19628,-0.57099 0.19628,-1.15984 v 0 h -2.26615 q -0.87434,0 -1.40965,0.21413 -0.53531,0.19628 -0.76728,0.55315 -0.23196,0.35688 -0.23196,0.82081 0,0.46394 0.21412,0.82081 0.23197,0.33903 0.64237,0.53531 0.42825,0.17844 1.01709,0.17844 z m 16.81267,1.2669 q -1.37396,0 -2.39105,-0.49962 -1.0171,-0.49962 -1.57025,-1.39181 -0.55315,-0.89218 -0.55315,-2.06987 h 1.57024 q 0,0.73159 0.32119,1.35612 0.32118,0.60669 0.9814,0.98141 0.66022,0.35687 1.65947,0.35687 0.80296,0 1.40965,-0.23197 0.60668,-0.23196 0.94571,-0.6959 0.35688,-0.46394 0.35688,-1.15984 0,-0.69591 -0.32119,-1.142 -0.30334,-0.46393 -0.83865,-0.76728 -0.53531,-0.30334 -1.19553,-0.51746 -0.64237,-0.23197 -1.32043,-0.46394 -1.62378,-0.571 -2.39106,-1.37397 -0.74944,-0.82081 -0.74944,-2.01633 0,-0.94572 0.46394,-1.67731 0.48178,-0.74944 1.35612,-1.17769 0.89219,-0.42824 2.10556,-0.42824 1.19553,0 2.06987,0.44609 0.89218,0.44609 1.39181,1.23121 0.49962,0.76728 0.49962,1.78437 h -1.57025 q 0,-0.66021 -0.2855,-1.15984 -0.28549,-0.49962 -0.83865,-0.78512 -0.55315,-0.30334 -1.39181,-0.30334 -0.66021,0 -1.19553,0.19628 -0.51746,0.19628 -0.82081,0.62453 -0.28549,0.42825 -0.28549,1.10631 0,0.57099 0.23196,0.94571 0.23197,0.37472 0.67806,0.66022 0.46394,0.26765 1.12416,0.53531 0.67806,0.24981 1.5524,0.571 0.91003,0.32119 1.62378,0.76728 0.73159,0.42825 1.14199,1.08846 0.42825,0.66022 0.42825,1.67731 0,0.91003 -0.46394,1.73084 -0.46393,0.80297 -1.3918,1.30259 -0.92788,0.49962 -2.33753,0.49962 z m 9.96849,0 q -1.26691,0 -2.24831,-0.57099 -0.9814,-0.58885 -1.5524,-1.62378 -0.55316,-1.05278 -0.55316,-2.44459 0,-1.40965 0.55316,-2.44458 0.55315,-1.03494 1.53456,-1.60594 0.99924,-0.58884 2.30183,-0.58884 1.30259,0 2.23047,0.58884 0.92787,0.571 1.42749,1.51672 0.49963,0.92787 0.49963,2.03418 0,0.17844 0,0.39256 0,0.19628 -0.0179,0.44609 h -7.40513 v -1.15984 h 5.94195 q -0.0535,-1.2669 -0.82081,-1.96281 -0.74944,-0.6959 -1.89143,-0.6959 -0.76728,0 -1.4275,0.33903 -0.66022,0.33903 -1.07062,1.01709 -0.39256,0.67806 -0.39256,1.713 v 0.49962 q 0,1.10631 0.4104,1.8379 0.41041,0.73159 1.07062,1.10631 0.67806,0.35688 1.40966,0.35688 0.92787,0 1.5524,-0.42825 0.62453,-0.42825 0.91003,-1.17769 h 1.48102 q -0.23196,0.82081 -0.76728,1.46319 -0.53531,0.64237 -1.33827,1.01709 -0.78513,0.37471 -1.8379,0.37471 z m 5.79306,-0.21412 v -8.85048 h 1.32044 l 0.14274,1.92712 h 0.0714 q 0.44609,-0.96356 0.87434,-1.40965 0.42825,-0.46393 0.9814,-0.58884 0.571,-0.14275 1.40966,-0.14275 v 1.57025 h -0.39256 q -0.71375,0 -1.26691,0.19628 -0.55315,0.17843 -0.91003,0.53531 -0.35687,0.35687 -0.55315,0.91003 -0.17844,0.53531 -0.17844,1.2669 v 4.58583 z m 8.68372,0 -3.17618,-8.85048 h 1.57025 l 2.53381,7.65495 h 0.0714 l 2.55165,-7.65495 h 1.53456 l -3.17618,8.85048 z m 6.72093,0 v -8.85048 h 1.49887 v 8.85048 z m 0.74943,-10.617 q -0.44609,0 -0.74943,-0.30334 -0.30335,-0.30335 -0.30335,-0.74944 0,-0.42825 0.30335,-0.73159 0.30334,-0.30334 0.74943,-0.30334 0.42825,0 0.73159,0.30334 0.30335,0.30334 0.30335,0.74943 0,0.42825 -0.30335,0.7316 -0.30334,0.30334 -0.73159,0.30334 z m 7.16703,10.83112 q -1.39181,0 -2.39106,-0.57099 -0.9814,-0.58885 -1.51671,-1.62378 -0.53531,-1.05278 -0.53531,-2.44459 0,-1.39181 0.571,-2.42674 0.58884,-1.05278 1.58809,-1.62378 1.01709,-0.58884 2.28399,-0.58884 1.58809,0 2.65871,0.82081 1.07062,0.82081 1.35612,2.19478 h -1.53456 q -0.17843,-0.91003 -0.87434,-1.37397 -0.6959,-0.48178 -1.62377,-0.48178 -0.74944,0 -1.40966,0.39256 -0.66021,0.37472 -1.07062,1.142 -0.4104,0.76728 -0.4104,1.94496 0,0.83866 0.21412,1.48103 0.23197,0.62453 0.62453,1.05278 0.39256,0.42825 0.91003,0.64237 0.53531,0.21413 1.142,0.21413 0.62453,0 1.14199,-0.19629 0.51747,-0.21412 0.87434,-0.60668 0.35688,-0.41041 0.48178,-0.96356 h 1.53456 q -0.2855,1.33828 -1.35612,2.17693 -1.07062,0.83865 -2.65871,0.83865 z m 9.79005,0 q -1.2669,0 -2.2483,-0.57099 -0.98141,-0.58885 -1.5524,-1.62378 -0.55316,-1.05278 -0.55316,-2.44459 0,-1.40965 0.55316,-2.44458 0.55315,-1.03494 1.53455,-1.60594 0.99925,-0.58884 2.30184,-0.58884 1.30259,0 2.23046,0.58884 0.92788,0.571 1.4275,1.51672 0.49962,0.92787 0.49962,2.03418 0,0.17844 0,0.39256 0,0.19628 -0.0178,0.44609 h -7.40514 v -1.15984 h 5.94196 q -0.0535,-1.2669 -0.82081,-1.96281 -0.74944,-0.6959 -1.89144,-0.6959 -0.76727,0 -1.42749,0.33903 -0.66022,0.33903 -1.07062,1.01709 -0.39257,0.67806 -0.39257,1.713 v 0.49962 q 0,1.10631 0.41041,1.8379 0.41041,0.73159 1.07062,1.10631 0.67806,0.35688 1.40965,0.35688 0.92788,0 1.55241,-0.42825 0.62453,-0.42825 0.91003,-1.17769 h 1.48102 q -0.23197,0.82081 -0.76728,1.46319 -0.53531,0.64237 -1.33827,1.01709 -0.78513,0.37471 -1.83791,0.37471 z m 12.28037,-0.21412 v -12.49059 h 1.49887 v 11.29506 h 5.81704 v 1.19553 z m 9.12982,0 v -8.85048 h 1.49887 v 8.85048 z m 0.74943,-10.617 q -0.44609,0 -0.74943,-0.30334 -0.30335,-0.30335 -0.30335,-0.74944 0,-0.42825 0.30335,-0.73159 0.30334,-0.30334 0.74943,-0.30334 0.42825,0 0.73159,0.30334 0.30335,0.30334 0.30335,0.74943 0,0.42825 -0.30335,0.7316 -0.30334,0.30334 -0.73159,0.30334 z m 2.99161,10.617 v -8.85048 h 1.32044 l 0.14274,1.39181 h 0.0714 q 0.46394,-0.73159 1.21337,-1.15984 0.74944,-0.44609 1.80222,-0.44609 1.01709,0 1.78437,0.42825 0.76727,0.4104 1.17768,1.28475 0.42825,0.85649 0.42825,2.17693 v 5.17467 h -1.49887 v -5.01408 q 0,-1.37396 -0.58884,-2.06987 -0.58885,-0.6959 -1.69516,-0.6959 -0.76728,0 -1.37396,0.37471 -0.58884,0.37472 -0.94572,1.08847 -0.33903,0.6959 -0.33903,1.73084 v 4.58583 z m 15.4465,0 -4.30033,-4.87133 3.87208,-3.97915 h 1.8379 l -4.42523,4.51446 v -1.07062 l 4.92486,5.40664 z m -5.54939,0 v -12.49059 h 1.49887 v 12.49059 z"
         id="text1"
         aria-label="Alaska Service Link" />
    </g>
  </g>
</svg>
