<?xml version="1.0" encoding="UTF-8" standalone="no"?>
<!-- Created with Inkscape (http://www.inkscape.org/) -->

<svg
   width="1823.3816mm"
   height="1823.3815mm"
   viewBox="0 0 1823.3815 1823.3814"
   version="1.1"
   id="svg1"
   inkscape:export-filename="choice.svg"
   inkscape:export-xdpi="96"
   inkscape:export-ydpi="96"
   sodipodi:docname="check.svg"
   xml:space="preserve"
   xmlns:inkscape="http://www.inkscape.org/namespaces/inkscape"
   xmlns:sodipodi="http://sodipodi.sourceforge.net/DTD/sodipodi-0.dtd"
   xmlns="http://www.w3.org/2000/svg"
   xmlns:svg="http://www.w3.org/2000/svg"><sodipodi:namedview
     id="namedview1"
     pagecolor="#ffffff"
     bordercolor="#999999"
     borderopacity="1"
     inkscape:showpageshadow="2"
     inkscape:pageopacity="0"
     inkscape:pagecheckerboard="0"
     inkscape:deskcolor="#d1d1d1"
     inkscape:document-units="mm"
     inkscape:zoom="0.11258021"
     inkscape:cx="3783.9688"
     inkscape:cy="3779.5276"
     inkscape:window-width="1920"
     inkscape:window-height="1111"
     inkscape:window-x="-9"
     inkscape:window-y="-9"
     inkscape:window-maximized="1"
     inkscape:current-layer="layer1"><inkscape:page
       x="-2.2015593e-20"
       y="0"
       width="1823.3815"
       height="1823.3813"
       id="page1"
       margin="0"
       bleed="0" /></sodipodi:namedview><defs
     id="defs1"><linearGradient
       id="swatch2"
       inkscape:swatch="solid"
       gradientTransform="matrix(0.14421029,-0.14421029,0.14421029,0.14421029,-132.6717,129.37839)"><stop
         style="stop-color:#2698c6;stop-opacity:1;"
         offset="0"
         id="stop2" /></linearGradient></defs><g
     inkscape:label="Layer 1"
     inkscape:groupmode="layer"
     id="layer1"
     transform="translate(-88.309204,-88.309205)"><circle
       style="display:inline;fill:#ffffff;fill-opacity:1;stroke:#000000;stroke-width:224.896;stroke-linecap:butt;stroke-linejoin:round;stroke-dasharray:none;stroke-opacity:1;paint-order:stroke fill markers"
       id="path1"
       cx="1000"
       cy="1000"
       r="799.2428" /></g><g
     inkscape:groupmode="layer"
     id="layer2"
     inkscape:label="hand"
     transform="translate(8.5898438e-5,-69.885851)"><path
       style="fill:url(#swatch2);stroke:#000000;stroke-width:27.3315;stroke-linejoin:round;stroke-dasharray:none;paint-order:stroke fill markers"
       d="m 616.6137,1458.6381 79.41879,77.4817 63.92241,176.271 466.8274,-5.8112 85.2299,-182.0821 c 0,0 1.937,-191.4036 1.937,-265.3749 0,-30.6137 -50.7529,-43.4307 -81.3558,-42.6149 -24.0208,0.6403 -49.3248,16.3803 -61.9853,36.8038 -13.646,22.0133 -5.8112,77.4817 -5.8112,77.4817 0,0 1.937,-108.4502 1.937,-149.1523 0,-33.4883 -61.8735,-38.3824 -94.915,-32.9297 -21.7911,3.596 -51.9606,18.5948 -52.3003,40.6778 -0.6456,41.9693 -1.2913,83.9386 -1.9369,125.9079 0,0 13.5495,-142.2376 -3.8742,-207.2636 -7.1995,-26.869 -49.76667,-33.3703 -77.48162,-30.9928 -19.63965,1.6848 -45.26135,11.9526 -50.36314,30.9928 -17.29897,64.5606 -21.3075,216.9488 -21.3075,216.9488 0,0 3.87411,-309.7036 3.87411,-443.58292 0,-27.43195 -46.18219,-37.39974 -73.60767,-36.80381 -26.58449,0.57766 -69.73355,12.15009 -69.73355,38.74086 0,134.65487 -7.74817,457.14227 -7.74817,457.14227 0,0 -82.4698,-64.8438 -127.84486,-91.0411 -21.71448,-12.5368 -48.92226,21.213 -61.98539,42.615 -13.22671,21.67 -27.63701,57.5929 -9.6852,75.5447 35.48995,35.49 98.78919,91.041 98.78919,91.041 z"
       id="path3"
       sodipodi:nodetypes="cccccssscssscssscssscsssc" /><path
       style="display:inline;fill:url(#swatch2);fill-opacity:1;stroke:#000000;stroke-width:27.3315;stroke-linejoin:round;stroke-dasharray:none;paint-order:stroke fill markers"
       d="m 181.64116,966.45872 75.34582,43.50098 187.62331,-350.23194 20.15928,-32.11028 17.62793,-10.88689 23.65386,3.93447 c 0,0 12.08092,18.98162 21.12258,25.1579 7.87799,5.38122 18.08401,12.25655 27.11176,9.17152 14.19145,-4.84966 27.55337,-22.7274 24.8825,-37.48489 -2.42877,-13.41921 -20.22812,-19.59758 -33.13747,-23.99298 -6.53771,-2.22597 4.34752,0.8896 -20.70978,-0.61439 l -12.0517,-29.64289 -53.98501,-32.78851 -36.83374,-14.78456 -104.53875,23.90212 -35.73274,50.66472 96.73368,-30.02877 33.5136,17.72872 -25.02034,29.30373 C 353.31838,734.0508 258.68344,848.45472 181.64116,966.45872 Z"
       id="path4"
       sodipodi:nodetypes="ccccccsssscccccccccc" /><path
       style="fill:url(#swatch2);fill-opacity:1;stroke:#000000;stroke-width:27.3315;stroke-linejoin:round;stroke-dasharray:none;paint-order:stroke fill markers"
       d="m 1127.8501,699.88853 c 0,0 -86.8383,-91.14861 -122.1253,-126.43561 -3.5358,-3.53561 -9.49158,5.41697 -14.36778,4.3103 -6.943,-1.57581 -14.3384,-7.40052 -15.8044,-14.36769 -0.9711,-4.61577 6.4977,-8.27417 5.7471,-12.93091 -2.2657,-14.05799 -28.7353,-31.60889 -28.7353,-31.60889 l -31.60904,31.60889 -193.96363,-181.03283 1.4368,-30.17214 -58.90751,-34.48243 -25.86186,28.73537 34.48247,63.21781 27.29862,-2.87355 186.77984,186.77991 -34.48245,33.04568 c 0,0 17.4605,31.2509 33.04567,35.91921 7.56645,2.26643 15.97979,-9.38973 22.98822,-5.74707 5.91891,3.07633 8.16051,12.07924 7.18383,18.67798 -0.7994,5.40172 -14.78632,10.20065 -10.05729,12.93093 44.13573,25.48172 132.18271,113.50466 132.18271,113.50466 l 38.7928,1.43679 48.85,-43.10304 z"
       id="path5"
       sodipodi:nodetypes="cssssccccccccccsssscccc" /><path
       style="fill:url(#swatch2);fill-opacity:1;stroke:#000000;stroke-width:27.3315;stroke-linejoin:round;stroke-dasharray:none;stroke-opacity:1;paint-order:stroke fill markers"
       d="m 1371.1965,756.35169 c 2.251,-5.56476 14.3289,-1.46475 16.58,-7.02951 31.0327,-76.71491 -67.1274,-158.32862 -96.9066,-228.56669 -4.5683,-10.77486 11.1647,-22.77547 21.8955,-27.44629 12.8361,-5.58726 33.2615,-7.83203 41.8758,3.20315 47.8959,61.35756 25.644,193.7685 101.6437,226.5583 5.9185,2.55356 12.3746,-8.96204 18.2663,-6.3473 14.1089,6.26145 4.1437,35.98865 18.0758,42.6342 15.9848,7.62461 33.4324,-16.30653 51.0663,-14.665 11.2063,1.04332 22.3896,7.02206 30.1748,15.14996 13.9433,14.55647 24.7832,55.15926 24.7832,55.15926 0,0 4.728,21.2743 13.4151,25.04989 8.3418,3.6258 17.7797,-9.96331 26.3762,-6.99128 8.3543,2.8882 11.5446,13.51943 15.9635,21.17509 4.0727,7.05575 12.5951,14.94914 9.5402,22.50132 -8.2005,20.27195 -36.1009,32.16052 -51.0008,41.18347 -50.87,30.80529 -154.5492,89.44524 -237.6425,85.38554 -14.0482,-0.6862 -30.8154,-7.99325 -36.7405,-20.7491 -4.5589,-9.81471 1.2101,-22.21313 6.0357,-31.89946 2.7376,-5.49508 12.3831,-13.63316 12.3831,-13.63316 0,0 -26.5045,-46.05225 -26.0714,-71.37902 0.1659,-9.70072 5.3445,-19.03858 10.9149,-26.98226 8.3299,-11.87924 19.862,-21.74855 32.3738,-29.09448 5.19,-3.04718 14.6278,-0.35017 17.0822,-5.84526 6.9942,-15.66001 -26.516,-31.47189 -20.0843,-47.37135 z"
       id="path8"
       sodipodi:nodetypes="sssssssssscsssssssscsssss" /><path
       style="fill:#000000;fill-opacity:1;stroke:#000000;stroke-width:4.729;stroke-linejoin:round;stroke-dasharray:none;stroke-opacity:1;paint-order:stroke fill markers"
       d="m 1023.6845,1170.7561 v 137.9315"
       id="path9" /><path
       style="fill:#000000;fill-opacity:1;stroke:#000000;stroke-width:4.729;stroke-linejoin:round;stroke-dasharray:none;stroke-opacity:1;paint-order:stroke fill markers"
       d="m 1169.0943,1253.0165 0.8309,73.1203"
       id="path10" /><path
       style="fill:#000000;fill-opacity:1;stroke:#000000;stroke-width:4.729;stroke-linejoin:round;stroke-dasharray:none;stroke-opacity:1;paint-order:stroke fill markers"
       d="m 870.74027,1198.5899 v 130.4347"
       id="path11" /></g></svg>
